<?xml version="1.0" encoding="utf-8"?><svg xmlns="http://www.w3.org/2000/svg" xmlns:xlink="http://www.w3.org/1999/xlink"><symbol viewBox="0 0 262.338 72.079" id="Barneys_New_York_Logo" xmlns="http://www.w3.org/2000/svg"><path d="M48.912 17.175v.153l.076.077h6.033l.076-.077v-.153L51.89 9.036l-2.978 8.139zm7.484 10.366v-.076l.688-.077.61-.23.534-.307.306-.385.076-.46-.152-.691-2.825-6.68v-.155l-.153-.153h-7.025v.077l-.077.153-2.673 6.987-.152.614.152.461.382.384.688.307.993.154v.076h-5.881v-.076l.84-.154.611-.23.458-.384.382-.614 8.401-22.113h.152l9.164 21.883.458.691.535.461.688.307.84.154v.076h-8.02zm104.78 0v-.076l.382-.077.535-.077.534-.153.458-.307.306-.461.153-.691.076-2.149v-2.457l.076-2.534v-5.682l-.076-3.148-.076-2.764-.153-.691-.306-.461-.458-.307-.534-.153-.535-.077-.382-.077v-.078h15.427l.153 1.305.076 1.536.076 1.459h-.152l-.229-.768-.306-.769-.382-.69-.458-.538-.688-.23-1.68-.153h-3.896l-2.062.153h-.152l-.229.077-.229.23v8.292l.076.23.077.153.152.077h6.491l.688-.077.535-.384.382-.46.152-.691.152-.768h.077v6.449h-.077l-.152-.69-.306-1.229-.382-.538-.458-.307-.611-.154h-6.491l-.152.077-.153.308v8.983l.229.23.229.076h.152l1.451.077 1.527.076h3.513l1.069-.076.916-.077.611-.23.458-.384.306-.537.306-.614.229-.691.152-.614h.152v1.075l-.152 2.304-.076.921h-16.341zm42.004 0v-.076l.382-.077.534-.077.535-.153.458-.307.306-.461.152-.691.076-2.688v-6.065l-1.374-2.61-.84-1.689-.917-1.689-.84-1.612-.916-1.382-.917-1.229-1.069-.922-1.146-.537-1.222-.23V4.89l.611-.153.687-.077h.535l1.527.153 1.298.308.993.614.916.845.764.998.764 1.151.765 1.382 2.749 5.222.764-1.151.84-1.383.917-1.535.916-1.459.764-1.459.688-1.229.229-.537-.076-.461-.306-.308-.458-.307-1.375-.308v-.075h5.957v.076l-.916.154-.764.46-.611.769-5.575 8.983-.305.614-.153.537-.076.614v2.994l.076 2.842.153 2.533.152.691.306.461.458.307.534.153.917.154v.076h-7.867zM12.254 5.888l-.458.23-.152.307-.077.461v7.602l.153.384.458.23.84.077h1.223l1.146-.077.992-.307.84-.538.764-.69.611-.922.306-1.151.152-1.306-.152-1.306-.382-1.151-.688-.845-.916-.614-1.224-.307-1.45-.154h-1.223l-.763.077zm.153 10.289l-.535.153-.229.307-.077.385v8.062l.077.691.382.537.61.308.993.153 1.298.077 1.299-.077 1.222-.384 1.146-.538.917-.768.687-.998.459-1.306.152-1.458-.152-1.383-.382-1.151-.611-.922-.84-.69-.993-.538-1.146-.307-1.146-.153-1.298-.077h-1.069l-.764.077zm-.229 11.517l-1.527-.076H9.199l-1.375-.077h-1.68v-.076l.764-.23.611-.23.534-.308.306-.537.152-.691.077-2.994.076-3.148v-6.449l-.075-3.151-.077-2.764-.153-.691-.381-.461-.458-.307-.459-.153-.535-.077-.458-.077v-.076l1.756-.077h1.833l1.757-.076 1.604-.077h1.299l1.146.077 1.222.153 1.146.23 1.069.384.916.537.841.691.61.845.382 1.074.153 1.229-.153 1.229-.382 1.075-.61.922-.688.768-.917.691-.916.537.992.23 1.069.46 1.069.614.917.845.764.998.534 1.229.152 1.383-.152 1.305-.382 1.306-.611 1.075-.916.998-1.222.768-1.527.614-1.833.384-2.139.153h-2.673zm230.333 0l-1.986-.307-1.833-.537-.076-.077-.152-.077-.076-.153v-4.3h.076l.534 1.612.688 1.306.84.921 1.069.614 1.299.384 1.604.077 1.146-.153 1.069-.384.764-.691.61-.845.382-1.229.153-1.382-.153-1.151-.382-.922-.687-.845-.841-.69-.916-.538-1.069-.614-1.069-.537-1.146-.614-1.069-.614-.916-.691-.84-.845-.688-1.074-.382-1.152-.153-1.459.153-1.535.534-1.306.84-1.151 1.069-.922 1.375-.69 1.527-.384 1.68-.154 2.215.23 1.986.461.305.077.306.153.077.077v.153l-.229 4.069h-.153l-.381-1.382-.459-1.152-.688-.845-.916-.537-1.146-.384-1.451-.077-.84.077-.84.23-.764.384-.688.537-.535.769-.306.921-.152 1.151.152 1.229.383.999.534.921.764.691.916.614.993.537.993.461 1.069.46.992.538.993.614.916.69.764.845.535.998.382 1.152.152 1.459-.229 1.535-.535 1.306-.84 1.151-1.069.922-1.298.69-1.451.384-1.527.154-1.908-.153zm-102.871.538L123.602 7.5v10.75l.077 2.533v2.381l.076 2.227.229.69.459.538.687.384.841.23 1.069.23v.076h-7.408v-.076l.84-.23.688-.23.611-.384.305-.538.153-.69.076-2.841.076-3.148v-6.296l-.076-1.689V9.651l-.076-1.536V6.886l-.153-.845-.382-.614-.534-.384-.535-.307-.61-.154h-.535v-.153l2.063-.23 1.222.077 1.069.384.993.537.916.769.916 1.074 1.069 1.229 10.463 13.283V10.649l-.152-3.379-.153-.845-.458-.614-.84-.384-1.146-.23v-.076h6.567v.076l-.84.23-.611.23-.534.384-.306.538-.152.69-.076 2.227-.077 2.534v5.375l.077 2.764.076 2.841.152 2.765.076 2.457h-.154zM88.701 5.965l-.459.153-.229.307-.076.538v8.906l.076.384.306.23.534.153h.84l1.069-.076 1.069-.23.993-.384.916-.614.764-.768.611-.922.382-1.075.152-1.305-.152-1.459-.306-1.306-.61-.997-.764-.69-.992-.538-1.145-.384-1.223-.077h-1.069l-.687.154zm10.844 22.19l-1.146-.307-1.069-.614-.992-.769-.993-.921-.916-1.075-5.27-6.373-.229-.306-.229-.153-.153-.154-.152-.076h-.229l-.152.307v7.679l.152.69.306.538.534.384.688.23.764.23v.076H82.67v-.076l.687-.23.535-.23.534-.308.306-.537.152-.691.077-2.994.076-3.148v-8.062l-.076-2.227-.077-2.073-.152-.691-.306-.461-.458-.307-.534-.153-.917-.154v-.078l1.451-.077h1.68l1.833-.076 1.604-.077h1.298l1.451.077 1.375.153 1.222.307 1.146.461.992.614.761.767.611.998.382 1.306.153 1.459-.153 1.382-.458 1.229-.688.998-.84.845-1.146.768-1.299.538-1.374.384-.076.076h-.077v.077l.077.077.076.153 4.047 5.145.917 1.229 1.069 1.151 1.069 1.075 1.068.921 1.069.538.993.23v.153l-.535.153-.687.077-.611.076-1.372-.153zM44.482 67.314v-.153l.916-.154.535-.153.458-.307.306-.461.152-.691.076-2.073.077-2.457.076-2.61v-4.914l-.076-2.38-.077-2.227-.076-1.996-.152-.691-.306-.461-.458-.307-.535-.154-.916-.153v-.153h15.503l.076 1.306.077 1.612.076 1.459h-.153l-.152-.614-.229-.691-.305-.614-.306-.537-.459-.385-.61-.232-1.681-.077h-3.818l-2.062.077-.458.153-.077.153-.076.23v8.139l.153.308.152.076h6.491l.688-.076.534-.384.306-.461.229-.691.076-.768h.152v6.449h-.152l-.076-.69-.153-.614-.228-.614-.306-.461-.458-.307-.611-.154h-6.491l-.152.077-.077.077-.076.153v8.983l.229.23.229.076h.153l1.451.077 1.527.077h2.749l1.451-.077 1.298-.077.535-.153.458-.384.382-.537.458-1.383.229-.614h.076v1.459l-.076 1.536-.153 1.382H44.482zm82.939 0v-.153l.916-.154.534-.153.459-.307.305-.461.153-.691.076-2.688.076-2.917v-3.071l-1.374-2.688-.841-1.689-.916-1.689-.84-1.535-.917-1.459-.992-1.151-.993-.922-1.146-.614-1.299-.23v-.153l.993-.153.917-.077 1.527.153 1.222.308 1.069.614.916.845.764.998.688 1.229.764 1.382 2.749 5.145.764-1.151.841-1.383.916-1.458.916-1.536.841-1.459.688-1.229.229-.537-.152-.461-.229-.307-.534-.23-.611-.154-.688-.153v-.153h5.881v.153l-.84.153-.764.385-.611.768-5.575 9.061-.306.614-.229.537v3.532l.076 2.841.076 2.533.153.691.305.461.459.307.534.153.916.154v.153h-7.866zm40.094-21.96l-1.527.538-1.298.921-1.146 1.152-.917 1.458-.688 1.689-.382 1.996-.152 2.15.076 1.689.229 1.688.458 1.612.611 1.536.764 1.382.992 1.229 1.069.998 1.375.769 1.451.46 1.68.154 1.681-.154 1.527-.46 1.298-.691 1.146-.922.917-1.151.687-1.306.535-1.612.306-1.688.076-1.843-.076-1.767-.306-1.766-.458-1.689-.611-1.535-.84-1.383-.993-1.229-1.222-.998-1.375-.768-1.527-.461-1.68-.153-1.68.155zm.153 22.19l-1.986-.538-1.756-.844-1.604-1.152-1.374-1.382-1.069-1.612-.84-1.767-.535-1.996-.152-2.149.152-2.15.535-1.996.764-1.843 1.069-1.689 1.374-1.382 1.604-1.151 1.833-.845 2.063-.614 2.215-.153 2.062.153 1.909.537 1.757.922 1.604 1.074 1.375 1.459 1.146 1.612.84 1.843.535 1.997.152 2.149-.152 2.073-.459 1.92-.84 1.766-.993 1.689-1.374 1.382-1.604 1.229-1.833.845-2.063.537-2.291.23-2.064-.154zm-71.178.307l-1.298-4.376-1.375-4.607-1.374-4.453-1.375-4.3-1.451 4.377-1.375 4.529-1.298 4.53-1.299 4.3h-.076l-.764-2.303-.764-2.381-.84-2.457-.84-2.533-1.681-4.761-.84-2.15-.688-1.919-.688-1.689-.534-1.382-.306-.614-.458-.384-.458-.154-.917-.153v-.153h7.179v.153l-.458.077-.534.076-.459.23-.305.308-.153.537.153.691.916 2.841 1.069 2.994 2.139 6.143.992 2.918 2.673-8.677 2.75-8.676h.076l2.597 8.753 1.451 4.377 1.527 4.223 1.298-3.763 1.375-3.839 1.298-3.762 1.146-3.686.076-.614-.076-.385-.306-.307-.382-.23-.534-.077-.916-.153v-.153h5.956v.153l-.687.077-.535.23-.458.307-.458.614-.382.922-.459 1.229-.61 1.612-.688 1.843-.764 2.149-.764 2.227-1.68 4.761-1.528 4.761-.687 2.149h-.149zm-70.413.077L10.039 47.197v10.826l.077 2.534v2.38l.076 2.15.152.768.458.537.688.385.917.229 1.069.154v.153H6.068v-.153l.764-.23.688-.23.61-.308.382-.537.153-.768.076-2.841.076-3.071v-6.296l-.076-1.767v-1.689l-.076-1.535-.076-1.228-.153-.845-.382-.614-.458-.384-.611-.308-.535-.153h-.535v-.23l2.139-.153 1.222.077.993.384.916.537.917.768.916.999 1.069 1.305L24.55 61.249V50.345l-.076-1.612v-1.689l-.153-.845-.534-.614-.764-.384-1.222-.23v-.153h6.567v.153l-.84.23-.611.23-.534.384-.306.537-.152.691v2.15l-.077 2.61v5.375l.077 2.687.076 2.841.076 2.765.152 2.457h-.152zm178.478-22.266l-.459.23-.152.307-.076.538v8.829l.076.461.306.23.534.153h.84l1.069-.076.993-.23 1.069-.461.916-.537.764-.769.611-.921.382-1.151.152-1.306-.152-1.459-.382-1.306-.534-.998-.841-.69-.916-.538-1.146-.384-1.299-.076h-1.068l-.687.154zm10.921 22.266l-1.146-.384-1.069-.614-.993-.768-.916-.922-.993-1.075-5.27-6.372-.306-.23-.152-.23-.153-.153-.152-.077h-.229l-.076.153-.076.077-.076.23v7.524l.152.768.306.537.611.385.687.229.764.154v.153H198.6v-.153l.688-.154.534-.229.534-.308.306-.537.153-.691.076-2.994.076-3.226v-5.682l-.076-2.38v-2.227l-.076-1.996-.153-.691-.306-.461-.458-.307-.534-.154-.535-.076-.382-.077v-.153l1.375-.077h1.604l1.757-.076h2.826l1.527.076 1.45.154 1.375.307 1.146.461.993.614.764.845.61.998.382 1.229.153 1.535-.153 1.306-.382 1.151-.687.998-.841.845-1.146.691-1.222.537-1.451.461-.152.077h-.076v.23l.076.153 4.048 5.145.84.998 1.833 1.996.916.845.917.69.916.461.764.153v.077l-.534.23-1.223.153-1.376-.152zm40.399.537l-1.68-.153-1.527-.384-1.299-.614-1.222-.845-1.146-.998-1.069-1.151-6.645-7.371-.152-.154h-.153l-.076.154v3.455l.076 1.843.077 1.688.076 1.459.152.691.306.461.458.307.535.153.916.154v.153h-7.866v-.153l.382-.077.535-.077.534-.153.458-.307.306-.461.152-.691.077-2.073v-2.457l.076-2.61V53.34l-.076-2.38v-2.227l-.077-1.996-.152-.691-.306-.461-.458-.307-.534-.154-.535-.076-.382-.077v-.153h7.866v.153l-.916.153-.535.154-.458.307-.306.461-.152.691-.076 1.996-.077 2.304-.076 2.457v2.303l2.826-2.688 2.749-2.917 2.521-2.841.458-.538.306-.537.076-.384-.152-.461-.382-.23-.611-.153-.764-.077v-.153h5.881v.153l-.841.23-.764.537-.764.614-.764.769-7.331 8.062 3.284 3.839.687.769.841.921 1.068 1.152 1.146 1.229 1.222 1.229 1.298 1.151 1.299.998 1.298.845 1.222.537 1.069.23v.153l-.61.154-.688.076h-.611z"/></symbol><symbol id="Billabong" viewBox="0 0 524.56 284.787" xmlns="http://www.w3.org/2000/svg"><defs id="bdefs4"><style type="text/css" id="bstyle2989"/></defs><g transform="translate(-129.149 -341.397)" id="blayer1"><g transform="translate(9.444 10.69) scale(3.5433)" id="bg3001" fill-rule="evenodd"><g id="bCamada_x0020_1"><g id="b_201448736"><path d="M122.485 93.333h49.693l9.648.015v17.166c-1.586.264-3.833.661-5.551 1.19-3.04 1.188-12.291 2.775-12.291-2.511 0-5.287 7.797-4.361 7.797-4.361s-.792-1.322-4.096-1.983c-3.172-.662-8.855-1.454-16.917 4.758-8.194 6.21-13.48 5.815-13.48 5.815s-4.494.396-4.494-4.229c0-4.494 7.93-3.965 7.93-3.965s-3.833-2.643-7.534-2.643c-3.568 0-7.137 1.19-11.63 3.7-2.775 1.454-6.344 2.644-8.723 3.172V93.341l9.648-.008zm59.34 34.89v2.644l-.036 9.648h-68.913l-.039-9.647v-3.57c2.379-.66 5.948-1.717 8.723-3.303 4.493-2.511 8.062-3.7 11.63-3.7 3.7-.001 7.533 2.643 7.533 2.643s-7.93-.529-7.93 4.097c0 4.493 4.494 4.097 4.494 4.097s5.287.396 13.48-5.815c8.063-6.213 13.745-5.419 16.917-4.758 3.305.66 4.097 1.982 4.097 1.982s-7.797-.925-7.797 4.494c0 5.286 9.251 3.568 12.291 2.511 1.718-.661 3.964-1.057 5.55-1.322z" id="b_201449384"/><path d="M99.028 158.188h.572c1.355 0 2.368-.247 3.034-.736.666-.49 1.001-1.22 1.001-2.197 0-.943-.318-1.644-.948-2.091-.63-.449-1.614-.672-2.952-.672h-.707v5.696zm77.724 10.86h4.658v4.658h-4.658v-4.659zm-84.818-19.924h-1.686l-20.337 22.03H68.23v-22.03h-2.048v22.03h-8.998v-22.03h-2.048v24.15h24.837v-2.12h-7.292l3.87-4.086h13.27l-.084 6.206h2.199l-.002-24.15zm-13.42 16.097l11.6-13.395-.25 13.395h-11.35zM53.33 149.124h-2.018v24.15h2.018v-24.15zm-19.547 0v24.15h6.294c3.372 0 4.155 0 5.148-.17 3.915-.718 4.969-4.07 4.969-6.67 0-3.286-1.626-5.406-4.276-6.09a.519.519 0 01-.24-.068c.06 0 .12 0 .18-.035 1.355-.273 3.613-1.573 3.613-5.096 0-1.814-.632-3.387-1.656-4.413-1.566-1.574-3.613-1.608-5.24-1.608h-8.792zm2.018 2.052h6.323c1.506 0 2.981 0 4.035.924.723.615 1.234 1.642 1.234 3.01 0 1.402-.511 2.498-1.204 3.147-1.144 1.095-2.8 1.095-4.426 1.095H35.8v-8.176zm0 10.16h5.871c1.175.035 2.229.035 3.162.342.422.102 3.342 1.06 3.342 4.858 0 2.942-1.686 4.481-4.396 4.618-.512.033-1.174.034-2.59.034H35.8v-9.852zm142.636-1.492c0 .095.005.236.017.424s.018.33.018.425c0 1.077-.1 2.085-.295 3.01a11.165 11.165 0 01-.895 2.616c-1.184 2.356-2.799 4.177-4.843 5.46-2.044 1.285-4.354 1.927-6.928 1.927-1.903 0-3.659-.365-5.267-1.09-1.614-.725-3.063-1.797-4.348-3.228a12.537 12.537 0 01-2.45-4.07 13.516 13.516 0 01-.43-1.38v9.267h-4.56L137.98 156.67v16.536h-4.83v-8.784c-.11.379-.237.754-.381 1.12a12.286 12.286 0 01-2.716 4.195 12.54 12.54 0 01-4.224 2.945 12.71 12.71 0 01-5.031 1.025c-1.874 0-3.6-.335-5.179-1-1.573-.667-2.969-1.657-4.194-2.97a13.137 13.137 0 01-1.875-2.523 8.135 8.135 0 01-.496 1.633c-.436 1.03-1.042 1.885-1.814 2.563a7.017 7.017 0 01-2.587 1.384c-.954.277-2.309.413-4.053.413h-6.303v-25.134H99.7c1.096 0 1.962.043 2.61.131a6.87 6.87 0 011.708.442c1.379.56 2.44 1.373 3.176 2.433.736 1.054 1.102 2.292 1.102 3.712 0 1.172-.219 2.173-.655 2.998a4.337 4.337 0 01-1.932 1.885 5.272 5.272 0 012.15 1.21l-.003-.297c0-1.378.183-2.68.554-3.905a12.495 12.495 0 011.637-3.447c1.244-1.81 2.805-3.199 4.678-4.183 1.874-.983 3.924-1.478 6.145-1.478 1.667 0 3.275.324 4.825.966a12.852 12.852 0 014.153 2.78c1.255 1.255 2.21 2.663 2.863 4.23.169.401.314.811.44 1.224v-8.7h4.66l10.391 16.054v-16.055h4.814v9.158c.156-.587.358-1.163.6-1.728.678-1.567 1.674-2.998 2.988-4.288 1.242-1.233 2.621-2.145 4.147-2.746 1.526-.596 3.217-.895 5.067-.895 2.704 0 5.042.66 7.01 1.985 1.968 1.32 3.482 3.252 4.554 5.797h-5.973c-.725-.908-1.58-1.59-2.563-2.044-.984-.454-2.086-.683-3.305-.683-2.15-.001-3.971.777-5.467 2.332-1.497 1.55-2.245 3.44-2.245 5.662 0 2.256.754 4.159 2.268 5.708 1.515 1.55 3.376 2.322 5.585 2.322 1.533 0 2.922-.413 4.171-1.243 1.25-.831 2.168-1.95 2.769-3.353h-9.874v-4.212h15.69zm-65.42.571c0 1.085.176 2.092.535 3.023a8.04 8.04 0 001.586 2.557 8.332 8.332 0 002.627 1.938 7.16 7.16 0 003.034.683c2.203 0 4.047-.783 5.537-2.35 1.491-1.562 2.233-3.512 2.233-5.85 0-2.145-.748-3.971-2.25-5.485-1.502-1.515-3.305-2.268-5.414-2.268-2.198-.001-4.06.754-5.59 2.262-1.533 1.508-2.298 3.34-2.298 5.49zm-13.989 8.372h1.485c1.496 0 2.592-.253 3.293-.754.701-.501 1.055-1.272 1.055-2.321 0-1.138-.366-2.003-1.102-2.592-.736-.583-1.82-.878-3.246-.878h-1.485v6.545z" id="b_201448928"/></g></g></g></g></symbol><symbol viewBox="0 0 1000 134.672" id="Calvin_klein_logo" xmlns="http://www.w3.org/2000/svg"><path d="M16.226 67.336c0 30.273 21.623 52.682 49.93 52.682 26.342 0 39.709-16.512 43.64-24.375h14.94c-3.931 12.58-21.623 38.529-58.58 38.529C28.807 134.172.5 105.865.5 67.336.5 29.2 29.2.5 66.156.5c36.957 0 55.042 25.555 58.973 38.529h-15.333c-4.717-8.256-17.692-24.769-43.64-24.769-28.307 0-49.93 22.41-49.93 53.076zM203.76 92.498h-54.255l-14.94 38.922h-14.94l49.93-128.954h14.547l49.93 129.347H218.7l-14.94-39.315zm-5.111-12.974L176.632 21.73l-22.016 57.794h44.033zm107.723 52.289h-64.476V2.466h15.332v115.193h49.538l-.394 14.154zm42.068 0h-14.154L285.93 2.466h16.119l39.315 108.51 39.315-108.51h15.333L348.44 131.813zm72.34 0h-14.94V2.466h14.94v129.347zm35.777-104.185v104.185h-14.154V2.466h14.154l71.947 104.578V2.466h14.153v129.347h-12.974L456.557 27.628zm174.559 44.819l-16.512 18.478v40.888h-14.94V2.466h14.94v68.801l60.545-68.801h18.085l-51.896 58.186 51.896 70.768h-17.298l-44.82-58.973zm135.244 59.366h-64.476V2.466h15.333v115.193h49.537v14.154h-.393zm9.436-129.347h68.802v13.76h-53.862V59.08h52.29v13.76h-52.29v44.82h53.862v13.76h-68.802V2.466zm102.22 129.347h-14.94V2.466h14.94v129.347zM913.4 27.628v104.185h-14.154V2.466H913.4l71.947 104.578V2.466H999.5v129.347h-12.974L913.4 27.628z"/></symbol><symbol viewBox="0 0 325 200" id="Converse_logo" xmlns="http://www.w3.org/2000/svg"><path fill-rule="evenodd" clip-rule="evenodd" d="M314.878 162.686h.94c.481 0 1.002.093 1.002.699 0 .723-.574.755-1.199.755h-.743v-1.454zm-.708 3.99h.708v-1.967h.752l1.243 1.967h.762l-1.306-2.018c.678-.069 1.201-.417 1.201-1.241 0-.879-.509-1.305-1.597-1.305h-1.764v4.564zm-1.703-2.3c0-1.866 1.398-3.311 3.224-3.311 1.808 0 3.21 1.444 3.21 3.311 0 1.911-1.403 3.355-3.21 3.355-1.826 0-3.224-1.444-3.224-3.355zm-.711 0c0 2.244 1.796 3.93 3.935 3.93a3.897 3.897 0 003.918-3.93c0-2.204-1.787-3.884-3.918-3.884-2.139 0-3.935 1.68-3.935 3.884zm-43.741-5.806v6.527h-16.349v7.374h11.23a6.909 6.909 0 016.911 6.911v6.063a6.909 6.909 0 01-6.911 6.911h-18.994v-6.526h18.765v-6.833h-11.231a6.91 6.91 0 01-6.911-6.911v-6.605a6.913 6.913 0 016.911-6.911h16.579zm37.471 33.787h-16.579a6.91 6.91 0 01-6.911-6.911v-19.965a6.913 6.913 0 016.911-6.911h16.579v6.527h-16.349v7.526h16.349v6.527h-16.349v6.68h16.349v6.527zm-111.955 0h-16.579a6.91 6.91 0 01-6.91-6.911v-19.965a6.914 6.914 0 016.91-6.911h16.579v6.527h-16.347v7.526h16.347v6.527h-16.347v6.68h16.347v6.527zm-95.37-33.787h15.741a6.913 6.913 0 016.911 6.911v26.876h-7.141v-27.26h-11.901v27.26H94.63V158.57h3.531zm115.334 14.054h12.663v-7.527h-12.663v7.527zm19.803-6.217v5.833a6.909 6.909 0 01-6.073 6.86l6.695 13.257h-8.038l-5.84-13.206h-6.547v13.206h-7.14V158.57h20.035a6.913 6.913 0 016.91 6.911v.926zm-96.128-7.837l7.985 28.107 8.447-28.107h8.139l-10.903 33.787h-11.211l-10.443-33.787h7.986zm-117.561 6.911a6.914 6.914 0 016.91-6.911h17.738v6.527H26.751v20.733h17.507v6.526H26.52a6.91 6.91 0 01-6.91-6.911v-19.964zm35.552 0a6.914 6.914 0 016.911-6.911h14.742a6.914 6.914 0 016.912 6.911v19.965a6.91 6.91 0 01-6.912 6.911H62.072a6.91 6.91 0 01-6.911-6.911v-19.965zm7.142-.383h14.283v20.733H62.303v-20.733zm102.546-132.5l9.183 28.265h29.719l-24.043 17.465 9.184 28.27-24.043-17.47-24.043 17.47 9.183-28.27-24.042-17.465h29.718l9.184-28.265zm55.401 39.929c0 30.598-24.804 55.399-55.402 55.399s-55.403-24.802-55.403-55.399 24.806-55.404 55.403-55.404S220.25 41.93 220.25 72.527zM164.849 7.643c-35.834 0-64.883 29.047-64.883 64.885 0 35.833 29.049 64.88 64.883 64.88 35.834 0 64.882-29.047 64.882-64.88-.001-35.839-29.048-64.885-64.882-64.885z"/></symbol><symbol viewBox="0 0 594.265 932.757" id="Gucci_Logo_(1)" xmlns="http://www.w3.org/2000/svg"><path d="M1807.49 298.323l-6.954 2.31q-40.565-88.085-115.902-140.24-74.174-52.156-186.6-52.156-62.585 0-119.377 26.656-56.79 25.5-99.674 73.018-41.724 46.36-67.223 112.424-25.497 66.064-25.497 146.035t25.497 146.035q25.499 66.063 67.223 113.582 42.884 46.36 99.674 71.86 56.792 25.496 119.378 25.496 111.265 0 180.805-34.77 70.7-35.928 119.378-108.945l6.955 2.31-2.31 74.177q-26.657 27.816-61.427 49.836-34.77 20.862-75.334 35.93-39.408 13.908-82.291 20.862-42.882 8.12-85.766 8.12-89.243 0-170.374-28.976-81.13-28.976-142.558-81.131-61.426-53.313-97.356-127.49-35.93-75.335-35.93-166.897t35.93-165.737q35.93-75.337 97.356-128.65 61.427-53.315 142.558-81.131 81.131-28.976 170.374-28.976 42.884 0 85.766 6.954 42.883 6.954 82.29 22.022 40.565 13.908 75.335 35.93 34.77 20.862 61.427 48.678zM-746.508 519.695q-12.742 5.788-24.339 15.074-11.597 9.265-11.597 25.499v142.557q-55.632 79.972-142.558 124.014-86.925 44.043-192.396 44.043-89.242 0-170.373-28.976-81.13-28.975-142.558-81.13-61.427-53.314-97.357-127.49-35.928-75.335-35.928-166.898 0-91.562 35.928-165.737 35.93-75.337 97.357-128.65 61.428-53.315 142.558-81.13 81.13-28.977 170.373-28.977 42.884 0 85.768 6.954 42.882 6.954 82.29 22.022 40.564 13.908 75.334 35.93 34.77 20.862 61.429 48.678l4.643 122.854-6.954 2.31q-40.565-88.086-115.9-140.241-74.177-52.156-186.601-52.156-62.586 0-119.376 26.657-56.792 25.499-99.676 73.017-41.725 46.361-67.221 112.425-25.5 66.063-25.5 146.035 0 78.811 24.34 144.875 25.499 66.063 67.223 113.584 42.882 46.359 99.674 73.017 56.792 25.497 120.536 25.497 120.538 0 206.304-46.359V560.258q0-16.219-12.742-25.499-11.597-9.265-23.182-15.074l1.06-5.788q5.788 1.06 20.863 2.31 15.074 1.06 31.293 2.31h99.68q13.908-1.06 26.658-2.31 12.742-1.06 19.697-2.31zM92.974 86.225q-11.597 5.788-23.18 15.074-11.596 9.265-12.741 34.77-1.06 27.816-2.311 70.7 0 41.725-1.06 95.037 0 53.316-1.06 115.902v129.81q-1.06 75.334-18.551 128.65-17.386 53.312-46.36 89.242-27.815 35.93-62.586 56.792-33.612 20.862-67.223 31.293-32.453 11.597-61.426 13.908-28.976 3.477-45.202 3.477-66.063 0-127.492-17.385-61.427-16.219-107.787-53.315-46.36-37.088-74.175-96.197-27.817-59.109-27.817-143.717V308.76q0-55.633-1.06-99.674 0-45.202-1.06-73.018-1.06-25.499-12.742-34.77-11.597-9.265-23.18-15.074l1.06-5.788q5.789 1.06 18.552 2.31 13.908 1.06 27.816 2.31 15.074 0 28.976 1.06h41.724q13.908-1.06 28.974-1.06 15.074-1.06 27.816-2.31 13.908-1.06 19.696-2.31l1.06 5.788q-12.742 5.788-24.339 15.074-10.43 9.265-11.597 34.77-1.06 27.816-2.31 73.018v351.179q0 126.332 59.108 186.6 59.11 60.268 175.011 60.268 33.61 0 76.495-8.12 42.884-9.265 79.971-37.088 38.247-27.816 63.746-78.811 26.657-50.998 26.657-135.604 0-91.562-1.06-156.466 0-66.063-1.06-112.424 0-47.519-1.06-81.131-1.06-33.61-2.312-61.427-1.06-25.499-12.742-34.77-11.597-9.265-23.18-15.075l1.061-5.787q12.742 2.31 28.974 4.643 16.219 1.06 30.135 1.06 12.742 0 28.974-1.06 17.385-2.31 30.136-4.643zm841.013 212.098l-6.954 2.31q-40.566-88.085-115.9-140.24-74.178-52.156-186.6-52.156-62.587 0-119.379 26.656-56.792 25.5-99.674 73.018-41.724 46.36-67.223 112.424Q312.76 386.4 312.76 466.37t25.498 146.035q25.5 66.063 67.223 113.582 42.882 46.36 99.674 71.86 56.792 25.496 119.379 25.496 111.264 0 180.805-34.77 70.698-35.928 119.376-108.945l6.954 2.31-2.31 74.177Q902.7 783.93 867.93 805.95q-34.77 20.862-75.336 35.93-39.405 13.908-82.29 20.862-42.883 8.12-85.765 8.12-89.245 0-170.374-28.976-81.131-28.976-142.558-81.131-61.429-53.313-97.356-127.49-35.93-75.335-35.93-166.897t35.93-165.737q35.927-75.337 97.356-128.65 61.427-53.315 142.558-81.131 81.13-28.976 170.374-28.976 42.882 0 85.766 6.954 42.884 6.954 82.289 22.022 40.566 13.908 75.336 35.93 34.77 20.862 61.427 48.678zM2156.818 851.17q-5.788-1.061-19.696-2.31-12.742 0-27.816-1.06-15.074 0-28.976-1.061h-69.534q-13.908 1.06-27.816 2.31-12.743 1.06-19.696 2.31l-1.06-4.644q11.596-5.788 23.179-15.074 11.597-9.265 12.742-34.77 1.06-27.816 1.06-57.95 1.06-30.135 1.06-68.383V261.41q0-38.247-1.06-67.223 0-30.134-1.06-57.95-1.06-25.499-12.742-34.77-11.598-10.431-23.18-16.22l1.06-4.642q6.954 2.31 19.697 3.477 13.908 0 27.816 1.06 15.074 1.06 28.976 1.06h40.558q13.908-1.06 28.976-1.06 15.074-1.06 27.816-2.31 13.908-1.06 19.696-2.31l1.06 4.644q-12.742 5.788-24.338 16.219-10.431 9.265-11.598 34.77-1.06 27.816-2.31 57.95v544.734q1.061 30.134 2.31 57.95 1.06 25.499 11.598 34.77 11.596 9.265 24.338 15.074z" font-weight="400" font-family="GoldenbookW01-Bold" letter-spacing="0" word-spacing="0" stroke-width="325.425"/></symbol><symbol viewBox="0 0 123.72 127.152" id="Gucci_logo" xmlns="http://www.w3.org/2000/svg"><path d="M116.792 90.018c0 20.504-16.634 37.138-37.138 37.138-5.907 0-11.474-1.357-16.498-3.87-4.957 2.445-10.592 3.87-16.43 3.87-20.505 0-37.139-16.634-37.139-37.138 0-20.504 16.634-37.138 37.138-37.138 5.907 0 11.474 1.358 16.43 3.802 4.957-2.444 10.592-3.802 16.499-3.802 20.504 0 37.138 16.634 37.138 37.138zm-7.332 0c0-16.43-13.376-29.805-29.806-29.805-3.123 0-6.178.475-8.962 1.358 5.703 4.752 9.845 11.134 11.881 18.467h-7.672a29.686 29.686 0 00-11.677-14.937c-5.364 3.53-9.438 8.759-11.61 14.937h-7.672a37.368 37.368 0 0111.881-18.535 30.604 30.604 0 00-9.03-1.358c-16.43 0-29.805 13.375-29.805 29.805s13.375 29.806 29.805 29.806c3.123 0 6.11-.475 8.894-1.358-7.4-6.178-12.22-15.276-12.967-25.46h17.652v7.264l-8.623.136c2.241 5.975 6.247 11 11.475 14.462 5.227-3.463 9.233-8.487 11.474-14.462l-8.623-.136v-7.264h17.653c-.815 10.184-5.703 19.214-13.104 25.392 2.852.883 5.907 1.426 9.03 1.426 16.498.068 29.806-13.24 29.806-29.738z" clip-rule="evenodd" fill-rule="evenodd"/><path d="M110.626 7.56l-.228.076q-1.331-2.891-3.804-4.603-2.434-1.711-6.123-1.711-2.054 0-3.918.875-1.864.836-3.271 2.396-1.37 1.521-2.206 3.69-.837 2.167-.837 4.792 0 2.624.837 4.792.837 2.168 2.206 3.728 1.407 1.521 3.27 2.358 1.865.837 3.919.837 3.651 0 5.933-1.141 2.32-1.18 3.918-3.576l.228.076-.076 2.434q-.875.913-2.016 1.636-1.14.685-2.472 1.18-1.293.455-2.7.684-1.408.266-2.815.266-2.929 0-5.591-.95-2.663-.952-4.679-2.663-2.016-1.75-3.195-4.184-1.179-2.472-1.179-5.477 0-3.005 1.18-5.44 1.178-2.472 3.194-4.221 2.016-1.75 4.679-2.663 2.662-.95 5.59-.95 1.408 0 2.816.227 1.407.229 2.7.723 1.331.457 2.472 1.18 1.141.684 2.016 1.597zM26.81 14.825q-.418.19-.798.494-.38.304-.38.837v4.679q-1.827 2.624-4.68 4.07-2.852 1.445-6.313 1.445-2.929 0-5.592-.951-2.662-.951-4.678-2.663-2.016-1.75-3.195-4.183-1.179-2.473-1.179-5.478 0-3.004 1.18-5.439 1.178-2.472 3.194-4.222Q6.385 1.664 9.047.752q2.663-.951 5.592-.951 1.407 0 2.814.228 1.408.228 2.7.723 1.332.456 2.473 1.179 1.141.685 2.016 1.597l.153 4.032-.229.076q-1.33-2.89-3.803-4.602-2.435-1.712-6.124-1.712-2.054 0-3.918.875-1.863.837-3.27 2.396-1.37 1.522-2.207 3.69-.837 2.168-.837 4.792 0 2.586.8 4.754.836 2.169 2.205 3.728 1.408 1.521 3.271 2.396 1.864.837 3.956.837 3.956 0 6.77-1.521v-7.113q0-.532-.418-.837-.38-.304-.76-.495l.034-.19q.19.035.685.076.495.035 1.027.076h3.271q.457-.035.875-.076.418-.035.646-.076zM54.36.599q-.38.19-.76.495-.381.304-.419 1.141-.035.913-.076 2.32 0 1.37-.034 3.12 0 1.749-.035 3.803v4.26q-.035 2.472-.609 4.222-.57 1.75-1.521 2.928-.913 1.18-2.054 1.864-1.103.685-2.206 1.027-1.065.38-2.016.457-.951.114-1.484.114-2.168 0-4.184-.57-2.016-.533-3.537-1.75-1.521-1.218-2.434-3.157-.913-1.94-.913-4.717V7.902q0-1.825-.035-3.27 0-1.484-.035-2.397-.034-.837-.418-1.14-.38-.305-.76-.496l.034-.19q.19.035.61.076.456.035.912.076.495 0 .95.035h1.37q.457-.035.951-.035.495-.035.913-.076.456-.035.646-.076l.035.19q-.418.19-.799.495-.342.304-.38 1.141-.035.913-.076 2.396v11.525q0 4.146 1.94 6.124 1.94 1.978 5.743 1.978 1.103 0 2.51-.267 1.408-.304 2.625-1.217 1.255-.913 2.092-2.586.875-1.674.875-4.45 0-3.005-.035-5.135 0-2.168-.035-3.69 0-1.56-.035-2.662-.034-1.103-.076-2.016-.034-.837-.418-1.141-.38-.304-.76-.495l.034-.19q.419.076.951.153.533.034.99.034.417 0 .95-.034.57-.076.989-.153zm27.6 6.961l-.228.076Q80.4 4.745 77.928 3.033q-2.434-1.711-6.124-1.711-2.053 0-3.917.875-1.864.836-3.271 2.396-1.37 1.521-2.206 3.69-.837 2.167-.837 4.792 0 2.624.837 4.792.836 2.168 2.206 3.728 1.407 1.521 3.27 2.358 1.865.837 3.918.837 3.652 0 5.934-1.141 2.32-1.18 3.918-3.576l.228.076-.076 2.434q-.875.913-2.016 1.636-1.14.685-2.472 1.18-1.293.455-2.7.684-1.408.266-2.815.266-2.93 0-5.592-.95-2.662-.952-4.678-2.663-2.016-1.75-3.195-4.184-1.18-2.472-1.18-5.477 0-3.005 1.18-5.44 1.18-2.472 3.195-4.221 2.016-1.75 4.678-2.663 2.663-.95 5.592-.95 1.407 0 2.814.227 1.408.229 2.7.723 1.332.457 2.473 1.18 1.141.684 2.016 1.597zm40.13 18.142q-.19-.034-.646-.075-.418 0-.913-.035-.495 0-.951-.034h-2.281q-.457.034-.914.075-.418.035-.646.076l-.035-.152q.38-.19.76-.495.381-.304.419-1.141.035-.913.035-1.902.035-.989.035-2.244V6.349q0-1.256-.035-2.207 0-.989-.035-1.901-.035-.837-.418-1.141-.38-.343-.76-.533l.034-.152q.228.076.646.114.457 0 .913.035.495.035.951.035h1.331q.456-.035.95-.035.496-.035.914-.076.456-.035.646-.076l.035.153q-.418.19-.799.532-.342.304-.38 1.14-.035.914-.076 1.903v17.877q.035.988.076 1.901.034.837.38 1.141.38.304.799.495z"/></symbol><symbol viewBox="0 0 400 200" id="Levi's_logo" xmlns="http://www.w3.org/2000/svg"><path d="M61.772-71.653a.247.247 0 01-.026.19c-.053.101-.112.063-.165.128a.638.638 0 00-.079.362c-.169.058-.01.227-.015.35-.002.05-.041.105-.045.161a.764.764 0 00.068.37c.097.198.268.413.435.544.19.148.365.572.608.631.177.042.384-.104.543-.143.18-.043.397.01.571-.053.222-.079.127-.337.288-.45.104-.074.287-.01.406-.051a.607.607 0 00.376-.46c.016-.082.01-.145.039-.221.039-.103.111-.16.09-.293-.01-.062-.052-.12-.064-.187-.022-.114.002-.224 0-.337-.003-.2.017-.379-.078-.55-.38-.688-1.236-.929-1.975-.789-.18.034-.287.126-.442.207-.17.088-.139.166-.318.224-.081.026-.216.124-.215.224.001.115.005.051.012.169-.021.011-.021-.005-.03-.025m-7.651-.001a.247.247 0 01-.026.19c-.053.101-.112.063-.165.128a.638.638 0 00-.079.362c-.169.058-.01.227-.015.35-.002.05-.041.105-.045.161a.764.764 0 00.068.37c.097.198.268.413.435.544.19.148.365.572.608.631.177.042.384-.104.543-.143.18-.043.397.01.571-.053.222-.079.127-.337.288-.45.104-.074.287-.01.406-.051a.607.607 0 00.376-.46c.016-.082.01-.145.039-.221.039-.103.111-.16.09-.293-.01-.062-.052-.12-.064-.187-.022-.114.002-.224 0-.337-.003-.2.017-.379-.078-.55-.38-.688-1.236-.929-1.975-.789-.18.034-.287.126-.442.207-.17.088-.139.166-.318.224-.081.026-.216.124-.215.224.001.115.005.051.012.169-.021.011-.021-.005-.03-.025m-7.65-.001a.247.247 0 01-.026.19c-.053.101-.112.063-.165.128a.638.638 0 00-.079.362c-.169.058-.01.227-.015.35-.002.05-.041.105-.045.161a.764.764 0 00.068.37c.097.198.268.413.435.544.19.148.365.572.608.631.177.042.384-.104.543-.143.18-.043.397.01.571-.053.222-.079.127-.337.288-.45.104-.074.287-.01.406-.051a.607.607 0 00.376-.46c.016-.082.01-.145.039-.221.039-.103.111-.16.09-.293-.01-.062-.052-.12-.064-.187-.022-.114.002-.224 0-.337-.003-.2.017-.379-.078-.55-.38-.688-1.236-.929-1.975-.789-.18.034-.287.126-.442.207-.17.088-.139.166-.318.224-.081.026-.216.124-.215.224.001.115.005.051.012.169-.021.011-.021-.005-.03-.025m-7.651-.001a.247.247 0 01-.026.19c-.053.101-.112.063-.165.128a.638.638 0 00-.079.362c-.169.058-.01.227-.015.35-.002.05-.041.105-.045.161a.764.764 0 00.068.37c.097.198.268.413.435.544.19.148.365.572.608.631.177.042.384-.104.543-.143.18-.043.397.01.571-.053.222-.079.127-.337.288-.45.104-.074.287-.01.406-.051a.607.607 0 00.376-.46c.016-.082.01-.145.039-.221.039-.103.111-.16.09-.293-.01-.062-.052-.12-.064-.187-.022-.114.002-.224 0-.337-.003-.2.017-.379-.078-.55-.38-.688-1.236-.929-1.975-.789-.18.034-.287.126-.442.207-.17.088-.139.166-.318.224-.081.026-.216.124-.215.224.001.115.005.051.012.169-.021.011-.021-.005-.03-.025m-7.651-.001a.247.247 0 01-.026.19c-.053.101-.112.063-.165.128a.638.638 0 00-.079.362c-.169.058-.01.227-.015.35-.002.05-.041.105-.045.161a.764.764 0 00.068.37c.097.198.268.413.435.544.19.148.365.572.608.631.177.042.384-.104.543-.143.18-.043.397.01.571-.053.222-.079.127-.337.288-.45.104-.074.287-.01.406-.051a.607.607 0 00.376-.46c.016-.082.01-.145.039-.221.039-.103.111-.16.09-.293-.01-.062-.052-.12-.064-.187-.022-.114.002-.224 0-.337-.003-.2.017-.379-.078-.55-.38-.688-1.236-.929-1.975-.789-.18.034-.287.126-.442.207-.17.088-.139.166-.318.224-.081.026-.216.124-.215.224.001.115.005.051.012.169-.021.011-.021-.005-.03-.025m-7.65-.001a.247.247 0 01-.026.19c-.053.101-.112.063-.165.128a.638.638 0 00-.079.362c-.169.058-.01.227-.015.35-.002.05-.041.105-.045.161a.764.764 0 00.068.37c.097.198.268.413.435.544.19.148.365.572.608.631.177.042.384-.104.543-.143.18-.043.397.01.571-.053.222-.079.127-.337.288-.45.104-.074.287-.01.406-.051a.607.607 0 00.376-.46c.016-.082.01-.145.039-.221.039-.103.111-.16.09-.293-.01-.062-.052-.12-.064-.187-.022-.114.002-.224 0-.337-.003-.2.017-.379-.078-.55-.38-.688-1.236-.929-1.975-.789-.18.034-.287.126-.442.207-.17.088-.139.166-.318.224-.081.026-.216.124-.215.224.001.115.005.051.012.169-.021.011-.021-.005-.03-.025m-7.651-.001a.247.247 0 01-.026.19c-.053.101-.112.063-.165.128a.638.638 0 00-.079.362c-.169.058-.01.227-.015.35-.002.05-.041.105-.045.161a.764.764 0 00.068.37c.097.198.268.413.435.544.19.148.365.572.608.631.177.042.384-.104.543-.143.18-.043.397.01.571-.053.222-.079.127-.337.288-.45.104-.074.287-.01.406-.051a.607.607 0 00.376-.46c.016-.082.01-.145.039-.221.039-.103.111-.16.09-.293-.01-.062-.052-.12-.064-.187-.022-.114.002-.224 0-.337-.003-.2.017-.379-.078-.55-.38-.688-1.236-.929-1.975-.789-.18.034-.287.126-.442.207-.17.088-.139.166-.318.224-.081.026-.216.124-.215.224.001.115.005.051.012.169-.021.011-.021-.005-.03-.025m-7.651-.001a.247.247 0 01-.026.19c-.053.101-.112.063-.165.128a.638.638 0 00-.079.362c-.169.058-.01.227-.015.35-.002.05-.041.105-.045.161a.764.764 0 00.068.37c.097.198.268.413.435.544.19.148.365.572.608.631.177.042.384-.104.543-.143.18-.043.397.01.571-.053.222-.079.127-.337.288-.45.104-.074.287-.01.406-.051a.607.607 0 00.376-.46c.016-.082.01-.145.039-.221.039-.103.111-.16.09-.293-.01-.062-.052-.12-.064-.187-.022-.114.002-.224 0-.337-.003-.2.017-.379-.078-.55-.38-.688-1.236-.929-1.975-.789-.18.034-.287.126-.442.207-.17.088-.139.166-.318.224-.081.026-.216.124-.215.224.001.115.005.051.012.169-.021.011-.021-.005-.03-.025m-7.65-.001a.242.242 0 01-.026.19c-.052.101-.113.063-.165.128a.63.63 0 00-.079.362c-.169.058-.01.227-.015.35-.002.05-.041.105-.045.161a.764.764 0 00.068.37c.097.198.268.413.435.544.19.148.365.572.608.631.177.042.384-.104.543-.143.18-.043.397.01.571-.053.222-.079.127-.337.288-.45.104-.074.287-.01.406-.051.2-.07.339-.263.376-.46.016-.082.01-.145.039-.221.038-.103.111-.16.09-.293-.01-.062-.051-.12-.064-.187-.021-.114.002-.224 0-.337-.003-.2.017-.379-.078-.55-.38-.688-1.236-.929-1.975-.789-.18.034-.287.126-.442.207-.17.088-.139.166-.318.224-.081.026-.215.124-.215.224.002.115.005.051.012.169-.021.011-.021-.005-.03-.025m69.016-.001a.242.242 0 01-.026.19c-.052.101-.113.063-.165.128a.63.63 0 00-.079.362c-.169.058-.01.227-.015.35-.002.05-.041.105-.045.161a.764.764 0 00.068.37c.097.198.268.413.435.544.19.148.365.572.608.631.177.042.384-.104.543-.143.18-.043.397.01.571-.053.222-.079.127-.337.288-.45.104-.074.287-.01.406-.051.2-.07.339-.263.376-.46.016-.082.01-.145.039-.221.038-.103.111-.16.09-.293-.01-.062-.051-.12-.064-.187-.021-.114.002-.224 0-.337-.003-.2.017-.379-.078-.55-.38-.688-1.236-.929-1.975-.789-.18.034-.287.126-.442.207-.17.088-.139.166-.318.224-.081.026-.215.124-.215.224.002.115.005.051.012.169-.021.011-.021-.005-.03-.025"/><path d="M.495-71.653a.242.242 0 01-.026.19c-.052.101-.113.063-.165.128a.63.63 0 00-.079.362c-.169.058-.01.227-.015.35-.002.05-.041.105-.045.161a.764.764 0 00.068.37c.097.198.268.413.435.544.19.148.365.572.608.631.177.042.384-.104.543-.143.18-.043.397.01.571-.053.222-.079.127-.337.288-.45.104-.074.287-.01.406-.051.2-.07.339-.263.376-.46.016-.082.01-.145.039-.221.038-.103.111-.16.09-.293-.01-.062-.051-.12-.064-.187-.021-.114.002-.224 0-.337-.003-.2.017-.379-.078-.55-.38-.688-1.236-.929-1.975-.789-.18.034-.287.126-.442.207-.17.088-.139.166-.318.224-.081.026-.215.124-.215.224.003.116.006.052.013.17-.021.011-.021-.005-.03-.025m68.959 7.65a.247.247 0 01-.026.19c-.053.101-.112.063-.165.128a.638.638 0 00-.079.362c-.169.058-.01.227-.015.35-.002.05-.041.105-.045.161a.764.764 0 00.068.37c.097.198.268.413.435.544.19.148.365.572.608.631.177.042.384-.104.543-.143.18-.043.397.01.571-.053.222-.079.127-.337.288-.45.104-.074.287-.01.406-.051a.607.607 0 00.376-.46c.016-.082.01-.145.039-.221.039-.103.111-.16.09-.293-.01-.062-.052-.12-.064-.187-.022-.114.002-.224 0-.337-.003-.2.017-.379-.078-.55-.38-.688-1.236-.929-1.975-.789-.18.034-.287.126-.442.207-.17.088-.139.166-.318.224-.081.026-.216.124-.215.224.001.115.005.051.012.169-.021.011-.021-.005-.03-.025m-7.645-.001a.247.247 0 01-.026.19c-.053.101-.112.063-.165.128a.638.638 0 00-.079.362c-.169.058-.009.227-.015.35-.002.05-.041.105-.045.161a.764.764 0 00.068.37c.097.198.268.413.435.544.19.148.365.572.608.631.177.042.384-.104.543-.143.18-.043.397.01.571-.053.222-.079.127-.337.288-.45.104-.074.287-.01.406-.051a.607.607 0 00.376-.46c.016-.082.01-.145.039-.221.039-.103.111-.16.09-.293-.01-.062-.052-.12-.064-.187-.022-.114.002-.224 0-.337-.003-.2.017-.379-.078-.55-.38-.688-1.236-.929-1.975-.789-.18.034-.287.126-.442.207-.17.088-.139.166-.318.224-.081.026-.216.124-.215.224.001.115.005.051.012.169-.021.011-.021-.005-.03-.025m-7.644-.001a.247.247 0 01-.026.19c-.053.101-.112.063-.165.128a.638.638 0 00-.079.362c-.169.058-.009.227-.015.35-.002.05-.041.105-.045.161a.764.764 0 00.068.37c.097.198.268.413.435.544.19.148.365.572.608.631.177.042.384-.104.543-.143.18-.043.397.01.571-.053.222-.079.127-.337.288-.45.104-.074.287-.01.406-.051a.607.607 0 00.376-.46c.016-.082.01-.145.039-.221.039-.103.111-.16.09-.293-.01-.062-.052-.12-.064-.187-.022-.114.002-.224 0-.337-.003-.2.017-.379-.078-.55-.38-.688-1.236-.929-1.975-.789-.18.034-.287.126-.442.207-.17.088-.139.166-.318.224-.081.026-.216.124-.215.224.001.115.005.051.012.169-.021.011-.021-.005-.03-.025m-7.644-.001a.247.247 0 01-.026.19c-.053.101-.112.063-.165.128a.638.638 0 00-.079.362c-.169.058-.009.227-.015.35-.002.05-.041.105-.045.161a.764.764 0 00.068.37c.097.198.268.413.435.544.19.148.365.572.608.631.177.042.384-.104.543-.143.18-.043.397.01.571-.053.222-.079.127-.337.288-.45.104-.074.287-.01.406-.051a.607.607 0 00.376-.46c.016-.082.01-.145.039-.221.039-.103.111-.16.09-.293-.01-.062-.052-.12-.064-.187-.022-.114.002-.224 0-.337-.003-.2.017-.379-.078-.55-.38-.688-1.236-.929-1.975-.789-.18.034-.287.126-.442.207-.17.088-.139.166-.318.224-.081.026-.216.124-.215.224.001.115.005.051.012.169-.021.011-.021-.005-.03-.025m-7.645-.001a.247.247 0 01-.026.19c-.053.101-.112.063-.165.128a.638.638 0 00-.079.362c-.169.058-.009.227-.015.35-.002.05-.041.105-.045.161a.764.764 0 00.068.37c.097.198.268.413.435.544.19.148.365.572.608.631.177.042.384-.104.543-.143.18-.043.397.01.571-.053.222-.079.127-.337.288-.45.104-.074.287-.01.406-.051a.607.607 0 00.376-.46c.016-.082.01-.145.039-.221.039-.103.111-.16.09-.293-.01-.062-.052-.12-.064-.187-.022-.114.002-.224 0-.337-.003-.2.017-.379-.078-.55-.38-.688-1.236-.929-1.975-.789-.18.034-.287.126-.442.207-.17.088-.139.166-.318.224-.081.026-.216.124-.215.224.001.115.005.051.012.169-.021.011-.021-.005-.03-.025m-7.644-.001a.247.247 0 01-.026.19c-.053.101-.112.063-.165.128a.638.638 0 00-.079.362c-.169.058-.009.227-.015.35-.002.05-.041.105-.045.161a.764.764 0 00.068.37c.097.198.268.413.435.544.19.148.365.572.608.631.177.042.384-.104.543-.143.18-.043.397.01.571-.053.222-.079.127-.337.288-.45.104-.074.287-.01.406-.051a.607.607 0 00.376-.46c.016-.082.01-.145.039-.221.039-.103.111-.16.09-.293-.01-.062-.052-.12-.064-.187-.022-.114.002-.224 0-.337-.003-.2.017-.379-.078-.55-.38-.688-1.236-.929-1.975-.789-.18.034-.287.126-.442.207-.17.088-.139.166-.318.224-.081.026-.216.124-.215.224.001.115.005.051.012.169-.021.011-.021-.005-.03-.025m-7.644-.001a.247.247 0 01-.026.19c-.053.101-.112.063-.165.128a.638.638 0 00-.079.362c-.169.058-.009.227-.015.35-.002.05-.041.105-.045.161a.764.764 0 00.068.37c.097.198.268.413.435.544.19.148.365.572.608.631.177.042.384-.104.543-.143.18-.043.397.01.571-.053.222-.079.127-.337.288-.45.104-.074.287-.01.406-.051a.607.607 0 00.376-.46c.016-.082.01-.145.039-.221.039-.103.111-.16.09-.293-.01-.062-.052-.12-.064-.187-.022-.114.002-.224 0-.337-.003-.2.017-.379-.078-.55-.38-.688-1.236-.929-1.975-.789-.18.034-.287.126-.442.207-.17.088-.139.166-.318.224-.081.026-.216.124-.215.224.001.115.005.051.012.169-.021.011-.021-.005-.03-.025m-7.645-.001a.247.247 0 01-.026.19c-.053.101-.112.063-.165.128a.638.638 0 00-.079.362c-.169.058-.009.227-.015.35-.002.05-.041.105-.045.161a.764.764 0 00.068.37c.097.198.268.413.435.544.19.148.365.572.608.631.177.042.384-.104.543-.143.18-.043.397.01.571-.053.222-.079.127-.337.288-.45.104-.074.287-.01.406-.051a.607.607 0 00.376-.46c.016-.082.01-.145.039-.221.039-.103.111-.16.09-.293-.01-.062-.052-.12-.064-.187-.022-.114.002-.224 0-.337-.003-.2.017-.379-.078-.55-.38-.688-1.236-.929-1.975-.789-.18.034-.287.126-.442.207-.17.088-.139.166-.318.224-.081.026-.216.124-.215.224.001.115.005.051.012.169-.021.011-.021-.005-.03-.025m-7.644-.001a.247.247 0 01-.026.19c-.053.101-.112.063-.165.128a.638.638 0 00-.079.362c-.169.058-.009.227-.015.35-.002.05-.041.105-.045.161a.764.764 0 00.068.37c.097.198.268.413.435.544.19.148.365.572.608.631.177.042.384-.104.543-.143.18-.043.397.01.571-.053.222-.079.127-.337.288-.45.104-.074.287-.01.406-.051a.607.607 0 00.376-.46c.016-.082.01-.145.039-.221.039-.103.111-.16.09-.293-.01-.062-.052-.12-.064-.187-.022-.114.002-.224 0-.337-.003-.2.017-.379-.078-.55-.38-.688-1.236-.929-1.975-.789-.18.034-.287.126-.442.207-.17.088-.139.166-.318.224-.081.026-.216.124-.215.224.001.115.005.051.012.169-.021.011-.021-.005-.03-.025m-7.645-.001a.247.247 0 01-.026.19c-.053.101-.112.063-.165.128a.638.638 0 00-.079.362c-.169.058-.01.227-.015.35-.002.05-.041.105-.045.161a.764.764 0 00.068.37c.097.198.268.413.435.544.19.148.365.572.608.631.177.042.384-.104.543-.143.181-.042.398.011.572-.052.222-.079.127-.337.288-.45.104-.074.287-.01.406-.051a.607.607 0 00.376-.46c.016-.082.01-.145.039-.221.039-.103.111-.16.09-.293-.01-.062-.052-.12-.064-.187-.022-.114.002-.224 0-.337-.003-.2.017-.379-.078-.55-.38-.688-1.236-.929-1.975-.789-.18.034-.287.126-.442.207-.17.088-.139.166-.318.224-.081.026-.216.124-.215.224.001.115.005.051.012.169-.021.011-.021-.005-.03-.025m68.959 7.651a.247.247 0 01-.026.19c-.053.101-.112.063-.165.128a.638.638 0 00-.079.362c-.169.058-.01.227-.015.35-.002.05-.041.105-.045.161a.764.764 0 00.068.37c.097.198.268.413.435.544.19.148.365.572.608.631.177.042.384-.104.543-.143.18-.043.397.01.571-.053.222-.079.127-.337.288-.45.104-.074.287-.01.406-.051a.607.607 0 00.376-.46c.016-.082.01-.145.039-.221.039-.103.111-.16.09-.293-.01-.062-.052-.12-.064-.187-.022-.114.002-.224 0-.337-.003-.2.017-.379-.078-.55-.38-.688-1.236-.929-1.975-.789-.18.034-.287.126-.442.207-.17.088-.139.166-.318.224-.081.026-.216.124-.215.224.001.115.005.051.012.169-.021.011-.021-.005-.03-.025m-7.645-.001a.247.247 0 01-.026.19c-.053.101-.112.063-.165.128a.638.638 0 00-.079.362c-.169.058-.009.227-.015.35-.002.05-.041.105-.045.161a.764.764 0 00.068.37c.097.198.268.413.435.544.19.148.365.572.608.631.177.042.384-.104.543-.143.18-.043.397.01.571-.053.222-.079.127-.337.288-.45.104-.074.287-.01.406-.051a.607.607 0 00.376-.46c.016-.082.01-.145.039-.221.039-.103.111-.16.09-.293-.01-.062-.052-.12-.064-.187-.022-.114.002-.224 0-.337-.003-.2.017-.379-.078-.55-.38-.688-1.236-.929-1.975-.789-.18.034-.287.126-.442.207-.17.088-.139.166-.318.224-.081.026-.216.124-.215.224.001.115.005.051.012.169-.021.011-.021-.005-.03-.025m-7.644-.001a.247.247 0 01-.026.19c-.053.101-.112.063-.165.128a.638.638 0 00-.079.362c-.169.058-.009.227-.015.35-.002.05-.041.105-.045.161a.764.764 0 00.068.37c.097.198.268.413.435.544.19.148.365.572.608.631.177.042.384-.104.543-.143.18-.043.397.01.571-.053.222-.079.127-.337.288-.45.104-.074.287-.01.406-.051a.607.607 0 00.376-.46c.016-.082.01-.145.039-.221.039-.103.111-.16.09-.293-.01-.062-.052-.12-.064-.187-.022-.114.002-.224 0-.337-.003-.2.017-.379-.078-.55-.38-.688-1.236-.929-1.975-.789-.18.034-.287.126-.442.207-.17.088-.139.166-.318.224-.081.026-.216.124-.215.224.001.115.005.051.012.169-.021.011-.021-.005-.03-.025m-7.644-.001a.247.247 0 01-.026.19c-.053.101-.112.063-.165.128a.638.638 0 00-.079.362c-.169.058-.009.227-.015.35-.002.05-.041.105-.045.161a.764.764 0 00.068.37c.097.198.268.413.435.544.19.148.365.572.608.631.177.042.384-.104.543-.143.18-.043.397.01.571-.053.222-.079.127-.337.288-.45.104-.074.287-.01.406-.051a.607.607 0 00.376-.46c.016-.082.01-.145.039-.221.039-.103.111-.16.09-.293-.01-.062-.052-.12-.064-.187-.022-.114.002-.224 0-.337-.003-.2.017-.379-.078-.55-.38-.688-1.236-.929-1.975-.789-.18.034-.287.126-.442.207-.17.088-.139.166-.318.224-.081.026-.216.124-.215.224.001.115.005.051.012.169-.021.011-.021-.005-.03-.025m-7.645-.001a.247.247 0 01-.026.19c-.053.101-.112.063-.165.128a.638.638 0 00-.079.362c-.169.058-.009.227-.015.35-.002.05-.041.105-.045.161a.764.764 0 00.068.37c.097.198.268.413.435.544.19.148.365.572.608.631.177.042.384-.104.543-.143.18-.043.397.01.571-.053.222-.079.127-.337.288-.45.104-.074.287-.01.406-.051a.607.607 0 00.376-.46c.016-.082.01-.145.039-.221.039-.103.111-.16.09-.293-.01-.062-.052-.12-.064-.187-.022-.114.002-.224 0-.337-.003-.2.017-.379-.078-.55-.38-.688-1.236-.929-1.975-.789-.18.034-.287.126-.442.207-.17.088-.139.166-.318.224-.081.026-.216.124-.215.224.001.115.005.051.012.169-.021.011-.021-.005-.03-.025m-7.644-.001a.247.247 0 01-.026.19c-.053.101-.112.063-.165.128a.638.638 0 00-.079.362c-.169.058-.009.227-.015.35-.002.05-.041.105-.045.161a.764.764 0 00.068.37c.097.198.268.413.435.544.19.148.365.572.608.631.177.042.384-.104.543-.143.18-.043.397.01.571-.053.222-.079.127-.337.288-.45.104-.074.287-.01.406-.051a.607.607 0 00.376-.46c.016-.082.01-.145.039-.221.039-.103.111-.16.09-.293-.01-.062-.052-.12-.064-.187-.022-.114.002-.224 0-.337-.003-.2.017-.379-.078-.55-.38-.688-1.236-.929-1.975-.789-.18.034-.287.126-.442.207-.17.088-.139.166-.318.224-.081.026-.216.124-.215.224.001.115.005.051.012.169-.021.011-.021-.005-.03-.025m-7.644-.001a.247.247 0 01-.026.19c-.053.101-.112.063-.165.128a.638.638 0 00-.079.362c-.169.058-.009.227-.015.35-.002.05-.041.105-.045.161a.764.764 0 00.068.37c.097.198.268.413.435.544.19.148.365.572.608.631.177.042.384-.104.543-.143.18-.043.397.01.571-.053.222-.079.127-.337.288-.45.104-.074.287-.01.406-.051a.607.607 0 00.376-.46c.016-.082.01-.145.039-.221.039-.103.111-.16.09-.293-.01-.062-.052-.12-.064-.187-.022-.114.002-.224 0-.337-.003-.2.017-.379-.078-.55-.38-.688-1.236-.929-1.975-.789-.18.034-.287.126-.442.207-.17.088-.139.166-.318.224-.081.026-.216.124-.215.224.001.115.005.051.012.169-.021.011-.021-.005-.03-.025m-7.645-.001a.247.247 0 01-.026.19c-.053.101-.112.063-.165.128a.638.638 0 00-.079.362c-.169.058-.009.227-.015.35-.002.05-.041.105-.045.161a.764.764 0 00.068.37c.097.198.268.413.435.544.19.148.365.572.608.631.177.042.384-.104.543-.143.18-.043.397.01.571-.053.222-.079.127-.337.288-.45.104-.074.287-.01.406-.051a.607.607 0 00.376-.46c.016-.082.01-.145.039-.221.039-.103.111-.16.09-.293-.01-.062-.052-.12-.064-.187-.022-.114.002-.224 0-.337-.003-.2.017-.379-.078-.55-.38-.688-1.236-.929-1.975-.789-.18.034-.287.126-.442.207-.17.088-.139.166-.318.224-.081.026-.216.124-.215.224.001.115.005.051.012.169-.021.011-.021-.005-.03-.025m-7.644-.001a.247.247 0 01-.026.19c-.053.101-.112.063-.165.128a.638.638 0 00-.079.362c-.169.058-.009.227-.015.35-.002.05-.041.105-.045.161a.764.764 0 00.068.37c.097.198.268.413.435.544.19.148.365.572.608.631.177.042.384-.104.543-.143.18-.043.397.01.571-.053.222-.079.127-.337.288-.45.104-.074.287-.01.406-.051a.607.607 0 00.376-.46c.016-.082.01-.145.039-.221.039-.103.111-.16.09-.293-.01-.062-.052-.12-.064-.187-.022-.114.002-.224 0-.337-.003-.2.017-.379-.078-.55-.38-.688-1.236-.929-1.975-.789-.18.034-.287.126-.442.207-.17.088-.139.166-.318.224-.081.026-.216.124-.215.224.001.115.005.051.012.169-.021.011-.021-.005-.03-.025m-7.645-.001a.247.247 0 01-.026.19c-.053.101-.112.063-.165.128a.638.638 0 00-.079.362c-.169.058-.01.227-.015.35-.002.05-.041.105-.045.161a.764.764 0 00.068.37c.097.198.268.413.435.544.19.148.365.572.608.631.177.042.384-.104.543-.143.18-.043.397.01.571-.053.222-.079.127-.337.288-.45.104-.074.287-.01.406-.051a.607.607 0 00.376-.46c.016-.082.01-.145.039-.221.039-.103.111-.16.09-.293-.01-.062-.052-.12-.064-.187-.022-.114.002-.224 0-.337-.003-.2.017-.379-.078-.55-.38-.688-1.236-.929-1.975-.789-.18.034-.287.126-.442.207-.17.088-.139.166-.318.224-.081.026-.216.124-.215.224.003.117.006.053.013.171-.021.011-.021-.005-.03-.025m68.959 7.65a.247.247 0 01-.026.19c-.053.101-.112.063-.165.128a.638.638 0 00-.079.362c-.169.058-.01.227-.015.35-.002.05-.041.105-.045.161a.764.764 0 00.068.37c.097.198.268.413.435.544.19.148.365.572.608.631.177.042.384-.104.543-.143.18-.043.397.01.571-.053.222-.079.127-.337.288-.45.104-.074.287-.01.406-.051a.607.607 0 00.376-.46c.016-.082.01-.145.039-.221.039-.103.111-.16.09-.293-.01-.062-.052-.12-.064-.187-.022-.114.002-.224 0-.337-.003-.2.017-.379-.078-.55-.38-.688-1.236-.929-1.975-.789-.18.034-.287.126-.442.207-.17.088-.139.166-.318.224-.081.026-.216.124-.215.224.001.115.005.051.012.169-.021.011-.021-.005-.03-.025m-7.645-.001a.247.247 0 01-.026.19c-.053.101-.112.063-.165.128a.638.638 0 00-.079.362c-.169.058-.009.227-.015.35-.002.05-.041.105-.045.161a.764.764 0 00.068.37c.097.198.268.413.435.544.19.148.365.572.608.631.177.042.384-.104.543-.143.18-.043.397.01.571-.053.222-.079.127-.337.288-.45.104-.074.287-.01.406-.051a.607.607 0 00.376-.46c.016-.082.01-.145.039-.221.039-.103.111-.16.09-.293-.01-.062-.052-.12-.064-.187-.022-.114.002-.224 0-.337-.003-.2.017-.379-.078-.55-.38-.688-1.236-.929-1.975-.789-.18.034-.287.126-.442.207-.17.088-.139.166-.318.224-.081.026-.216.124-.215.224.001.115.005.051.012.169-.021.011-.021-.005-.03-.025m-7.644-.001a.247.247 0 01-.026.19c-.053.101-.112.063-.165.128a.638.638 0 00-.079.362c-.169.058-.009.227-.015.35-.002.05-.041.105-.045.161a.764.764 0 00.068.37c.097.198.268.413.435.544.19.148.365.572.608.631.177.042.384-.104.543-.143.18-.043.397.01.571-.053.222-.079.127-.337.288-.45.104-.074.287-.01.406-.051a.607.607 0 00.376-.46c.016-.082.01-.145.039-.221.039-.103.111-.16.09-.293-.01-.062-.052-.12-.064-.187-.022-.114.002-.224 0-.337-.003-.2.017-.379-.078-.55-.38-.688-1.236-.929-1.975-.789-.18.034-.287.126-.442.207-.17.088-.139.166-.318.224-.081.026-.216.124-.215.224.001.115.005.051.012.169-.021.011-.021-.005-.03-.025m-7.644-.001a.247.247 0 01-.026.19c-.053.101-.112.063-.165.128a.638.638 0 00-.079.362c-.169.058-.009.227-.015.35-.002.05-.041.105-.045.161a.764.764 0 00.068.37c.097.198.268.413.435.544.19.148.365.572.608.631.177.042.384-.104.543-.143.18-.043.397.01.571-.053.222-.079.127-.337.288-.45.104-.074.287-.01.406-.051a.607.607 0 00.376-.46c.016-.082.01-.145.039-.221.039-.103.111-.16.09-.293-.01-.062-.052-.12-.064-.187-.022-.114.002-.224 0-.337-.003-.2.017-.379-.078-.55-.38-.688-1.236-.929-1.975-.789-.18.034-.287.126-.442.207-.17.088-.139.166-.318.224-.081.026-.216.124-.215.224.001.115.005.051.012.169-.021.011-.021-.005-.03-.025m-7.645-.001a.247.247 0 01-.026.19c-.053.101-.112.063-.165.128a.638.638 0 00-.079.362c-.169.058-.009.227-.015.35-.002.05-.041.105-.045.161a.764.764 0 00.068.37c.097.198.268.413.435.544.19.148.365.572.608.631.177.042.384-.104.543-.143.18-.043.397.01.571-.053.222-.079.127-.337.288-.45.104-.074.287-.01.406-.051a.607.607 0 00.376-.46c.016-.082.01-.145.039-.221.039-.103.111-.16.09-.293-.01-.062-.052-.12-.064-.187-.022-.114.002-.224 0-.337-.003-.2.017-.379-.078-.55-.38-.688-1.236-.929-1.975-.789-.18.034-.287.126-.442.207-.17.088-.139.166-.318.224-.081.026-.216.124-.215.224.001.115.005.051.012.169-.021.011-.021-.005-.03-.025m-7.644-.001a.247.247 0 01-.026.19c-.053.101-.112.063-.165.128a.638.638 0 00-.079.362c-.169.058-.009.227-.015.35-.002.05-.041.105-.045.161a.764.764 0 00.068.37c.097.198.268.413.435.544.19.148.365.572.608.631.177.042.384-.104.543-.143.18-.043.397.01.571-.053.222-.079.127-.337.288-.45.104-.074.287-.01.406-.051a.607.607 0 00.376-.46c.016-.082.01-.145.039-.221.039-.103.111-.16.09-.293-.01-.062-.052-.12-.064-.187-.022-.114.002-.224 0-.337-.003-.2.017-.379-.078-.55-.38-.688-1.236-.929-1.975-.789-.18.034-.287.126-.442.207-.17.088-.139.166-.318.224-.081.026-.216.124-.215.224.001.115.005.051.012.169-.021.011-.021-.005-.03-.025m-7.644-.001a.247.247 0 01-.026.19c-.053.101-.112.063-.165.128a.638.638 0 00-.079.362c-.169.058-.009.227-.015.35-.002.05-.041.105-.045.161a.764.764 0 00.068.37c.097.198.268.413.435.544.19.148.365.572.608.631.177.042.384-.104.543-.143.18-.043.397.01.571-.053.222-.079.127-.337.288-.45.104-.074.287-.01.406-.051a.607.607 0 00.376-.46c.016-.082.01-.145.039-.221.039-.103.111-.16.09-.293-.01-.062-.052-.12-.064-.187-.022-.114.002-.224 0-.337-.003-.2.017-.379-.078-.55-.38-.688-1.236-.929-1.975-.789-.18.034-.287.126-.442.207-.17.088-.139.166-.318.224-.081.026-.216.124-.215.224.001.115.005.051.012.169-.021.011-.021-.005-.03-.025m-7.645-.001a.247.247 0 01-.026.19c-.053.101-.112.063-.165.128a.638.638 0 00-.079.362c-.169.058-.009.227-.015.35-.002.05-.041.105-.045.161a.764.764 0 00.068.37c.097.198.268.413.435.544.19.148.365.572.608.631.177.042.384-.104.543-.143.18-.043.397.01.571-.053.222-.079.127-.337.288-.45.104-.074.287-.01.406-.051a.607.607 0 00.376-.46c.016-.082.01-.145.039-.221.039-.103.111-.16.09-.293-.01-.062-.052-.12-.064-.187-.022-.114.002-.224 0-.337-.003-.2.017-.379-.078-.55-.38-.688-1.236-.929-1.975-.789-.18.034-.287.126-.442.207-.17.088-.139.166-.318.224-.081.026-.216.124-.215.224.001.115.005.051.012.169-.021.011-.021-.005-.03-.025m-7.644-.001a.247.247 0 01-.026.19c-.053.101-.112.063-.165.128a.638.638 0 00-.079.362c-.169.058-.009.227-.015.35-.002.05-.041.105-.045.161a.764.764 0 00.068.37c.097.198.268.413.435.544.19.148.365.572.608.631.177.042.384-.104.543-.143.18-.043.397.01.571-.053.222-.079.127-.337.288-.45.104-.074.287-.01.406-.051a.607.607 0 00.376-.46c.016-.082.01-.145.039-.221.039-.103.111-.16.09-.293-.01-.062-.052-.12-.064-.187-.022-.114.002-.224 0-.337-.003-.2.017-.379-.078-.55-.38-.688-1.236-.929-1.975-.789-.18.034-.287.126-.442.207-.17.088-.139.166-.318.224-.081.026-.216.124-.215.224.001.115.005.051.012.169-.021.011-.021-.005-.03-.025m-7.645-.001a.247.247 0 01-.026.19c-.053.101-.112.063-.165.128a.638.638 0 00-.079.362c-.169.058-.01.227-.015.35-.002.05-.041.105-.045.161a.764.764 0 00.068.37c.097.198.268.413.435.544.19.148.365.572.608.631.177.042.384-.104.543-.143.18-.043.397.01.571-.053.222-.079.127-.337.288-.45.104-.074.287-.01.406-.051a.607.607 0 00.376-.46c.016-.082.01-.145.039-.221.039-.103.111-.16.09-.293-.01-.062-.052-.12-.064-.187-.022-.114.002-.224 0-.337-.003-.2.017-.379-.078-.55-.38-.688-1.236-.929-1.975-.789-.18.034-.287.126-.442.207-.17.088-.139.166-.318.224-.081.026-.216.124-.215.224.001.115.005.051.012.169-.021.011-.021-.005-.03-.025m68.96 7.652a.247.247 0 01-.026.19c-.053.101-.112.063-.165.128a.638.638 0 00-.079.362c-.169.058-.01.227-.015.35-.002.05-.041.105-.045.161a.764.764 0 00.068.37c.097.198.268.413.435.544.19.148.365.572.608.631.177.042.384-.104.543-.143.18-.043.397.01.571-.053.222-.079.127-.337.288-.45.104-.074.287-.01.406-.051a.607.607 0 00.376-.46c.016-.082.01-.145.039-.221.039-.103.111-.16.09-.293-.01-.062-.052-.12-.064-.187-.022-.114.002-.224 0-.337-.003-.2.017-.379-.078-.55-.38-.688-1.236-.929-1.975-.789-.18.034-.287.126-.442.207-.17.088-.139.166-.318.224-.081.026-.216.124-.215.224.001.115.005.051.012.169-.021.011-.021-.005-.03-.025m-7.645-.001a.247.247 0 01-.026.19c-.053.101-.112.063-.165.128a.638.638 0 00-.079.362c-.169.058-.009.227-.015.35-.002.05-.041.105-.045.161a.764.764 0 00.068.37c.097.198.268.413.435.544.19.148.365.572.608.631.177.042.384-.104.543-.143.18-.043.397.01.571-.053.222-.079.127-.337.288-.45.104-.074.287-.01.406-.051a.607.607 0 00.376-.46c.016-.082.01-.145.039-.221.039-.103.111-.16.09-.293-.01-.062-.052-.12-.064-.187-.022-.114.002-.224 0-.337-.003-.2.017-.379-.078-.55-.38-.688-1.236-.929-1.975-.789-.18.034-.287.126-.442.207-.17.088-.139.166-.318.224-.081.026-.216.124-.215.224.001.115.005.051.012.169-.021.011-.021-.005-.03-.025m-7.644-.001a.247.247 0 01-.026.19c-.053.101-.112.063-.165.128a.638.638 0 00-.079.362c-.169.058-.009.227-.015.35-.002.05-.041.105-.045.161a.764.764 0 00.068.37c.097.198.268.413.435.544.19.148.365.572.608.631.177.042.384-.104.543-.143.18-.043.397.01.571-.053.222-.079.127-.337.288-.45.104-.074.287-.01.406-.051a.607.607 0 00.376-.46c.016-.082.01-.145.039-.221.039-.103.111-.16.09-.293-.01-.062-.052-.12-.064-.187-.022-.114.002-.224 0-.337-.003-.2.017-.379-.078-.55-.38-.688-1.236-.929-1.975-.789-.18.034-.287.126-.442.207-.17.088-.139.166-.318.224-.081.026-.216.124-.215.224.001.115.005.051.012.169-.021.011-.021-.005-.03-.025m-7.644-.001a.247.247 0 01-.026.19c-.053.101-.112.063-.165.128a.638.638 0 00-.079.362c-.169.058-.009.227-.015.35-.002.05-.041.105-.045.161a.764.764 0 00.068.37c.097.198.268.413.435.544.19.148.365.572.608.631.177.042.384-.104.543-.143.18-.043.397.01.571-.053.222-.079.127-.337.288-.45.104-.074.287-.01.406-.051a.607.607 0 00.376-.46c.016-.082.01-.145.039-.221.039-.103.111-.16.09-.293-.01-.062-.052-.12-.064-.187-.022-.114.002-.224 0-.337-.003-.2.017-.379-.078-.55-.38-.688-1.236-.929-1.975-.789-.18.034-.287.126-.442.207-.17.088-.139.166-.318.224-.081.026-.216.124-.215.224.001.115.005.051.012.169-.021.011-.021-.005-.03-.025m-7.645-.001a.247.247 0 01-.026.19c-.053.101-.112.063-.165.128a.638.638 0 00-.079.362c-.169.058-.009.227-.015.35-.002.05-.041.105-.045.161a.764.764 0 00.068.37c.097.198.268.413.435.544.19.148.365.572.608.631.177.042.384-.104.543-.143.18-.043.397.01.571-.053.222-.079.127-.337.288-.45.104-.074.287-.01.406-.051a.607.607 0 00.376-.46c.016-.082.01-.145.039-.221.039-.103.111-.16.09-.293-.01-.062-.052-.12-.064-.187-.022-.114.002-.224 0-.337-.003-.2.017-.379-.078-.55-.38-.688-1.236-.929-1.975-.789-.18.034-.287.126-.442.207-.17.088-.139.166-.318.224-.081.026-.216.124-.215.224.001.115.005.051.012.169-.021.011-.021-.005-.03-.025m-7.644-.001a.247.247 0 01-.026.19c-.053.101-.112.063-.165.128a.638.638 0 00-.079.362c-.169.058-.009.227-.015.35-.002.05-.041.105-.045.161a.764.764 0 00.068.37c.097.198.268.413.435.544.19.148.365.572.608.631.177.042.384-.104.543-.143.18-.043.397.01.571-.053.222-.079.127-.337.288-.45.104-.074.287-.01.406-.051a.607.607 0 00.376-.46c.016-.082.01-.145.039-.221.039-.103.111-.16.09-.293-.01-.062-.052-.12-.064-.187-.022-.114.002-.224 0-.337-.003-.2.017-.379-.078-.55-.38-.688-1.236-.929-1.975-.789-.18.034-.287.126-.442.207-.17.088-.139.166-.318.224-.081.026-.216.124-.215.224.001.115.005.051.012.169-.021.011-.021-.005-.03-.025m-7.644-.001a.247.247 0 01-.026.19c-.053.101-.112.063-.165.128a.638.638 0 00-.079.362c-.169.058-.009.227-.015.35-.002.05-.041.105-.045.161a.764.764 0 00.068.37c.097.198.268.413.435.544.19.148.365.572.608.631.177.042.384-.104.543-.143.18-.043.397.01.571-.053.222-.079.127-.337.288-.45.104-.074.287-.01.406-.051a.607.607 0 00.376-.46c.016-.082.01-.145.039-.221.039-.103.111-.16.09-.293-.01-.062-.052-.12-.064-.187-.022-.114.002-.224 0-.337-.003-.2.017-.379-.078-.55-.38-.688-1.236-.929-1.975-.789-.18.034-.287.126-.442.207-.17.088-.139.166-.318.224-.081.026-.216.124-.215.224.001.115.005.051.012.169-.021.011-.021-.005-.03-.025m-7.645-.001a.247.247 0 01-.026.19c-.053.101-.112.063-.165.128a.638.638 0 00-.079.362c-.169.058-.009.227-.015.35-.002.05-.041.105-.045.161a.764.764 0 00.068.37c.097.198.268.413.435.544.19.148.365.572.608.631.177.042.384-.104.543-.143.18-.043.397.01.571-.053.222-.079.127-.337.288-.45.104-.074.287-.01.406-.051a.607.607 0 00.376-.46c.016-.082.01-.145.039-.221.039-.103.111-.16.09-.293-.01-.062-.052-.12-.064-.187-.022-.114.002-.224 0-.337-.003-.2.017-.379-.078-.55-.38-.688-1.236-.929-1.975-.789-.18.034-.287.126-.442.207-.17.088-.139.166-.318.224-.081.026-.216.124-.215.224.001.115.005.051.012.169-.021.011-.021-.005-.03-.025m-7.644-.001a.247.247 0 01-.026.19c-.053.101-.112.063-.165.128a.638.638 0 00-.079.362c-.169.058-.009.227-.015.35-.002.05-.041.105-.045.161a.764.764 0 00.068.37c.097.198.268.413.435.544.19.148.365.572.608.631.177.042.384-.104.543-.143.18-.043.397.01.571-.053.222-.079.127-.337.288-.45.104-.074.287-.01.406-.051a.607.607 0 00.376-.46c.016-.082.01-.145.039-.221.039-.103.111-.16.09-.293-.01-.062-.052-.12-.064-.187-.022-.114.002-.224 0-.337-.003-.2.017-.379-.078-.55-.38-.688-1.236-.929-1.975-.789-.18.034-.287.126-.442.207-.17.088-.139.166-.318.224-.081.026-.216.124-.215.224.001.115.005.051.012.169-.02.012-.021-.004-.03-.024m-7.645-.002a.247.247 0 01-.026.19c-.053.101-.112.063-.165.128a.638.638 0 00-.079.362c-.169.058-.01.227-.015.35-.002.05-.041.105-.045.161a.764.764 0 00.068.37c.097.198.268.413.435.544.19.148.365.572.608.631.177.042.384-.104.543-.143.18-.043.397.01.571-.053.222-.079.127-.337.288-.45.104-.074.287-.01.406-.051a.607.607 0 00.376-.46c.016-.082.01-.145.039-.221.039-.103.111-.16.09-.293-.01-.062-.052-.12-.064-.187-.022-.114.002-.224 0-.337-.003-.2.017-.379-.078-.55-.38-.688-1.236-.929-1.975-.789-.18.034-.287.126-.442.207-.17.088-.139.166-.318.224-.081.026-.216.124-.215.224.001.115.005.051.012.169-.021.011-.021-.005-.03-.025m68.96 7.651a.247.247 0 01-.026.19c-.053.101-.112.063-.165.128a.638.638 0 00-.079.362c-.169.058-.01.227-.015.35-.002.05-.041.105-.045.161a.764.764 0 00.068.37c.097.198.268.413.435.544.19.148.365.572.608.631.177.042.384-.104.543-.143.18-.043.397.01.571-.053.222-.079.127-.337.288-.45.104-.074.287-.01.406-.051a.607.607 0 00.376-.46c.016-.082.01-.145.039-.221.039-.103.111-.16.09-.293-.01-.062-.052-.12-.064-.187-.022-.114.002-.224 0-.337-.003-.2.017-.379-.078-.55-.38-.688-1.236-.929-1.975-.789-.18.034-.287.126-.442.207-.17.088-.139.166-.318.224-.081.026-.216.124-.215.224.001.115.005.051.012.169-.021.011-.021-.005-.03-.025m-7.645-.001a.247.247 0 01-.026.19c-.053.101-.112.063-.165.128a.638.638 0 00-.079.362c-.169.058-.009.227-.015.35-.002.05-.041.105-.045.161a.764.764 0 00.068.37c.097.198.268.413.435.544.19.148.365.572.608.631.177.042.384-.104.543-.143.18-.043.397.01.571-.053.222-.079.127-.337.288-.45.104-.074.287-.01.406-.051a.607.607 0 00.376-.46c.016-.082.01-.145.039-.221.039-.103.111-.16.09-.293-.01-.062-.052-.12-.064-.187-.022-.114.002-.224 0-.337-.003-.2.017-.379-.078-.55-.38-.688-1.236-.929-1.975-.789-.18.034-.287.126-.442.207-.17.088-.139.166-.318.224-.081.026-.216.124-.215.224.001.115.005.051.012.169-.021.011-.021-.005-.03-.025m-7.644-.001a.247.247 0 01-.026.19c-.053.101-.112.063-.165.128a.638.638 0 00-.079.362c-.169.058-.009.227-.015.35-.002.05-.041.105-.045.161a.764.764 0 00.068.37c.097.198.268.413.435.544.19.148.365.572.608.631.177.042.384-.104.543-.143.18-.043.397.01.571-.053.222-.079.127-.337.288-.45.104-.074.287-.01.406-.051a.607.607 0 00.376-.46c.016-.082.01-.145.039-.221.039-.103.111-.16.09-.293-.01-.062-.052-.12-.064-.187-.022-.114.002-.224 0-.337-.003-.2.017-.379-.078-.55-.38-.688-1.236-.929-1.975-.789-.18.034-.287.126-.442.207-.17.088-.139.166-.318.224-.081.026-.216.124-.215.224.001.115.005.051.012.169-.021.011-.021-.005-.03-.025m-7.644-.001a.247.247 0 01-.026.19c-.053.101-.112.063-.165.128a.638.638 0 00-.079.362c-.169.058-.009.227-.015.35-.002.05-.041.105-.045.161a.764.764 0 00.068.37c.097.198.268.413.435.544.19.148.365.572.608.631.177.042.384-.104.543-.143.18-.043.397.01.571-.053.222-.079.127-.337.288-.45.104-.074.287-.01.406-.051a.607.607 0 00.376-.46c.016-.082.01-.145.039-.221.039-.103.111-.16.09-.293-.01-.062-.052-.12-.064-.187-.022-.114.002-.224 0-.337-.003-.2.017-.379-.078-.55-.38-.688-1.236-.929-1.975-.789-.18.034-.287.126-.442.207-.17.088-.139.166-.318.224-.081.026-.216.124-.215.224.001.115.005.051.012.169-.021.011-.021-.005-.03-.025m-7.645-.001a.247.247 0 01-.026.19c-.053.101-.112.063-.165.128a.638.638 0 00-.079.362c-.169.058-.009.227-.015.35-.002.05-.041.105-.045.161a.764.764 0 00.068.37c.097.198.268.413.435.544.19.148.365.572.608.631.177.042.384-.104.543-.143.18-.043.397.01.571-.053.222-.079.127-.337.288-.45.104-.074.287-.01.406-.051a.607.607 0 00.376-.46c.016-.082.01-.145.039-.221.039-.103.111-.16.09-.293-.01-.062-.052-.12-.064-.187-.022-.114.002-.224 0-.337-.003-.2.017-.379-.078-.55-.38-.688-1.236-.929-1.975-.789-.18.034-.287.126-.442.207-.17.088-.139.166-.318.224-.081.026-.216.124-.215.224.001.115.005.051.012.169-.021.011-.021-.005-.03-.025m-7.644-.001a.247.247 0 01-.026.19c-.053.101-.112.063-.165.128a.638.638 0 00-.079.362c-.169.058-.009.227-.015.35-.002.05-.041.105-.045.161a.764.764 0 00.068.37c.097.198.268.413.435.544.19.148.365.572.608.631.177.042.384-.104.543-.143.18-.043.397.01.571-.053.222-.079.127-.337.288-.45.104-.074.287-.01.406-.051a.607.607 0 00.376-.46c.016-.082.01-.145.039-.221.039-.103.111-.16.09-.293-.01-.062-.052-.12-.064-.187-.022-.114.002-.224 0-.337-.003-.2.017-.379-.078-.55-.38-.688-1.236-.929-1.975-.789-.18.034-.287.126-.442.207-.17.088-.139.166-.318.224-.081.026-.216.124-.215.224.001.115.005.051.012.169-.021.011-.021-.005-.03-.025m-7.644-.001a.247.247 0 01-.026.19c-.053.101-.112.063-.165.128a.638.638 0 00-.079.362c-.169.058-.009.227-.015.35-.002.05-.041.105-.045.161a.764.764 0 00.068.37c.097.198.268.413.435.544.19.148.365.572.608.631.177.042.384-.104.543-.143.18-.043.397.01.571-.053.222-.079.127-.337.288-.45.104-.074.287-.01.406-.051a.607.607 0 00.376-.46c.016-.082.01-.145.039-.221.039-.103.111-.16.09-.293-.01-.062-.052-.12-.064-.187-.022-.114.002-.224 0-.337-.003-.2.017-.379-.078-.55-.38-.688-1.236-.929-1.975-.789-.18.034-.287.126-.442.207-.17.088-.139.166-.318.224-.081.026-.216.124-.215.224.001.115.005.051.012.169-.021.011-.021-.005-.03-.025m-7.645-.001a.247.247 0 01-.026.19c-.053.101-.112.063-.165.128a.638.638 0 00-.079.362c-.169.058-.009.227-.015.35-.002.05-.041.105-.045.161a.764.764 0 00.068.37c.097.198.268.413.435.544.19.148.365.572.608.631.177.042.384-.104.543-.143.18-.043.397.01.571-.053.222-.079.127-.337.288-.45.104-.074.287-.01.406-.051a.607.607 0 00.376-.46c.016-.082.01-.145.039-.221.039-.103.111-.16.09-.293-.01-.062-.052-.12-.064-.187-.022-.114.002-.224 0-.337-.003-.2.017-.379-.078-.55-.38-.688-1.236-.929-1.975-.789-.18.034-.287.126-.442.207-.17.088-.139.166-.318.224-.081.026-.216.124-.215.224.001.115.005.051.012.169-.021.011-.021-.005-.03-.025m-7.644-.001a.247.247 0 01-.026.19c-.053.101-.112.063-.165.128a.638.638 0 00-.079.362c-.169.058-.009.227-.015.35-.002.05-.041.105-.045.161a.764.764 0 00.068.37c.097.198.268.413.435.544.19.148.365.572.608.631.177.042.384-.104.543-.143.18-.043.397.01.571-.053.222-.079.127-.337.288-.45.104-.074.287-.01.406-.051a.607.607 0 00.376-.46c.016-.082.01-.145.039-.221.039-.103.111-.16.09-.293-.01-.062-.052-.12-.064-.187-.022-.114.002-.224 0-.337-.003-.2.017-.379-.078-.55-.38-.688-1.236-.929-1.975-.789-.18.034-.287.126-.442.207-.17.088-.139.166-.318.224-.081.026-.216.124-.215.224.001.115.005.051.012.169-.021.011-.021-.005-.03-.025M.495-33.39a.247.247 0 01-.026.19c-.053.101-.112.063-.165.128a.638.638 0 00-.079.362c-.169.058-.01.227-.015.35-.002.05-.041.105-.045.161a.764.764 0 00.068.37c.097.198.268.413.435.544.19.148.365.572.608.631.177.042.384-.104.543-.143.18-.043.397.01.571-.053.222-.079.127-.337.288-.45.104-.074.287-.01.406-.051a.607.607 0 00.376-.46c.016-.082.01-.145.039-.221.039-.103.111-.16.09-.293-.01-.062-.052-.12-.064-.187-.022-.114.002-.224 0-.337-.003-.2.017-.379-.078-.55-.38-.688-1.236-.929-1.975-.789-.18.034-.287.126-.442.207-.17.088-.139.166-.318.224-.081.026-.216.124-.215.224.003.117.006.053.013.171-.021.011-.021-.005-.03-.025m68.959 7.651a.247.247 0 01-.026.19c-.053.101-.112.063-.165.128a.638.638 0 00-.079.362c-.169.058-.01.227-.015.35-.002.05-.041.105-.045.161a.764.764 0 00.068.37c.097.198.268.413.435.544.19.148.365.572.608.631.177.042.384-.104.543-.143.18-.043.397.01.571-.053.222-.079.127-.337.288-.45.104-.074.287-.01.406-.051a.607.607 0 00.376-.46c.016-.082.01-.145.039-.221.039-.103.111-.16.09-.293-.01-.062-.052-.12-.064-.187-.022-.114.002-.224 0-.337-.003-.2.017-.379-.078-.55-.38-.688-1.236-.929-1.975-.789-.18.034-.287.126-.442.207-.17.088-.139.166-.318.224-.081.026-.216.124-.215.224.001.115.005.051.012.169-.021.011-.021-.005-.03-.025m-7.645-.001a.247.247 0 01-.026.19c-.053.101-.112.063-.165.128a.638.638 0 00-.079.362c-.169.058-.009.227-.015.35-.002.05-.041.105-.045.161a.764.764 0 00.068.37c.097.198.268.413.435.544.19.148.365.572.608.631.177.042.384-.104.543-.143.18-.043.397.01.571-.053.222-.079.127-.337.288-.45.104-.074.287-.01.406-.051a.607.607 0 00.376-.46c.016-.082.01-.145.039-.221.039-.103.111-.16.09-.293-.01-.062-.052-.12-.064-.187-.022-.114.002-.224 0-.337-.003-.2.017-.379-.078-.55-.38-.688-1.236-.929-1.975-.789-.18.034-.287.126-.442.207-.17.088-.139.166-.318.224-.081.026-.216.124-.215.224.001.115.005.051.012.169-.021.011-.021-.005-.03-.025m-7.644-.001a.247.247 0 01-.026.19c-.053.101-.112.063-.165.128a.638.638 0 00-.079.362c-.169.058-.009.227-.015.35-.002.05-.041.105-.045.161a.764.764 0 00.068.37c.097.198.268.413.435.544.19.148.365.572.608.631.177.042.384-.104.543-.143.18-.043.397.01.571-.053.222-.079.127-.337.288-.45.104-.074.287-.01.406-.051a.607.607 0 00.376-.46c.016-.082.01-.145.039-.221.039-.103.111-.16.09-.293-.01-.062-.052-.12-.064-.187-.022-.114.002-.224 0-.337-.003-.2.017-.379-.078-.55-.38-.688-1.236-.929-1.975-.789-.18.034-.287.126-.442.207-.17.088-.139.166-.318.224-.081.026-.216.124-.215.224.001.115.005.051.012.169-.021.011-.021-.005-.03-.025m-7.644-.001a.247.247 0 01-.026.19c-.053.101-.112.063-.165.128a.638.638 0 00-.079.362c-.169.058-.009.227-.015.35-.002.05-.041.105-.045.161a.764.764 0 00.068.37c.097.198.268.413.435.544.19.148.365.572.608.631.177.042.384-.104.543-.143.18-.043.397.01.571-.053.222-.079.127-.337.288-.45.104-.074.287-.01.406-.051a.607.607 0 00.376-.46c.016-.082.01-.145.039-.221.039-.103.111-.16.09-.293-.01-.062-.052-.12-.064-.187-.022-.114.002-.224 0-.337-.003-.2.017-.379-.078-.55-.38-.688-1.236-.929-1.975-.789-.18.034-.287.126-.442.207-.17.088-.139.166-.318.224-.081.026-.216.124-.215.224.001.115.005.051.012.169-.021.011-.021-.005-.03-.025m-7.645-.001a.247.247 0 01-.026.19c-.053.101-.112.063-.165.128a.638.638 0 00-.079.362c-.169.058-.009.227-.015.35-.002.05-.041.105-.045.161a.764.764 0 00.068.37c.097.198.268.413.435.544.19.148.365.572.608.631.177.042.384-.104.543-.143.18-.043.397.01.571-.053.222-.079.127-.337.288-.45.104-.074.287-.01.406-.051a.607.607 0 00.376-.46c.016-.082.01-.145.039-.221.039-.103.111-.16.09-.293-.01-.062-.052-.12-.064-.187-.022-.114.002-.224 0-.337-.003-.2.017-.379-.078-.55-.38-.688-1.236-.929-1.975-.789-.18.034-.287.126-.442.207-.17.088-.139.166-.318.224-.081.026-.216.124-.215.224.001.115.005.051.012.169-.021.011-.021-.005-.03-.025m-7.644-.001a.247.247 0 01-.026.19c-.053.101-.112.063-.165.128a.638.638 0 00-.079.362c-.169.058-.009.227-.015.35-.002.05-.041.105-.045.161a.764.764 0 00.068.37c.097.198.268.413.435.544.19.148.365.572.608.631.177.042.384-.104.543-.143.18-.043.397.01.571-.053.222-.079.127-.337.288-.45.104-.074.287-.01.406-.051a.607.607 0 00.376-.46c.016-.082.01-.145.039-.221.039-.103.111-.16.09-.293-.01-.062-.052-.12-.064-.187-.022-.114.002-.224 0-.337-.003-.2.017-.379-.078-.55-.38-.688-1.236-.929-1.975-.789-.18.034-.287.126-.442.207-.17.088-.139.166-.318.224-.081.026-.216.124-.215.224.001.115.005.051.012.169-.021.011-.021-.005-.03-.025m-7.644-.001a.247.247 0 01-.026.19c-.053.101-.112.063-.165.128a.638.638 0 00-.079.362c-.169.058-.009.227-.015.35-.002.05-.041.105-.045.161a.764.764 0 00.068.37c.097.198.268.413.435.544.19.148.365.572.608.631.177.042.384-.104.543-.143.18-.043.397.01.571-.053.222-.079.127-.337.288-.45.104-.074.287-.01.406-.051a.607.607 0 00.376-.46c.016-.082.01-.145.039-.221.039-.103.111-.16.09-.293-.01-.062-.052-.12-.064-.187-.022-.114.002-.224 0-.337-.003-.2.017-.379-.078-.55-.38-.688-1.236-.929-1.975-.789-.18.034-.287.126-.442.207-.17.088-.139.166-.318.224-.081.026-.216.124-.215.224.001.115.005.051.012.169-.021.011-.021-.005-.03-.025m-7.645-.001a.247.247 0 01-.026.19c-.053.101-.112.063-.165.128a.638.638 0 00-.079.362c-.169.058-.009.227-.015.35-.002.05-.041.105-.045.161a.764.764 0 00.068.37c.097.198.268.413.435.544.19.148.365.572.608.631.177.042.384-.104.543-.143.18-.043.397.01.571-.053.222-.079.127-.337.288-.45.104-.074.287-.01.406-.051a.607.607 0 00.376-.46c.016-.082.01-.145.039-.221.039-.103.111-.16.09-.293-.01-.062-.052-.12-.064-.187-.022-.114.002-.224 0-.337-.003-.2.017-.379-.078-.55-.38-.688-1.236-.929-1.975-.789-.18.034-.287.126-.442.207-.17.088-.139.166-.318.224-.081.026-.216.124-.215.224.001.115.005.051.012.169-.021.011-.021-.005-.03-.025m-7.644-.001a.247.247 0 01-.026.19c-.053.101-.112.063-.165.128a.638.638 0 00-.079.362c-.169.058-.009.227-.015.35-.002.05-.041.105-.045.161a.764.764 0 00.068.37c.097.198.268.413.435.544.19.148.365.572.608.631.177.042.384-.104.543-.143.18-.043.397.01.571-.053.222-.079.127-.337.288-.45.104-.074.287-.01.406-.051a.607.607 0 00.376-.46c.016-.082.01-.145.039-.221.039-.103.111-.16.09-.293-.01-.062-.052-.12-.064-.187-.022-.114.002-.224 0-.337-.003-.2.017-.379-.078-.55-.38-.688-1.236-.929-1.975-.789-.18.034-.287.126-.442.207-.17.088-.139.166-.318.224-.081.026-.216.124-.215.224.001.115.005.051.012.169-.021.011-.021-.005-.03-.025m-7.645-.001a.247.247 0 01-.026.19c-.053.101-.112.063-.165.128a.638.638 0 00-.079.362c-.169.058-.01.227-.015.35-.002.05-.041.105-.045.161a.764.764 0 00.068.37c.097.198.268.413.435.544.19.148.365.572.608.631.177.042.384-.104.543-.143.18-.043.397.01.571-.053.222-.079.127-.337.288-.45.104-.074.287-.01.406-.051a.607.607 0 00.376-.46c.016-.082.01-.145.039-.221.039-.103.111-.16.09-.293-.01-.062-.052-.12-.064-.187-.022-.114.002-.224 0-.337-.003-.2.017-.379-.078-.55-.38-.688-1.236-.929-1.975-.789-.18.034-.287.126-.442.207-.17.088-.139.166-.318.224-.081.026-.216.124-.215.224.001.115.005.051.012.169-.021.011-.021-.005-.03-.025m68.96 7.651a.247.247 0 01-.026.19c-.053.101-.112.063-.165.128a.638.638 0 00-.079.362c-.169.058-.01.227-.015.35-.002.05-.041.105-.045.161a.764.764 0 00.068.37c.097.198.268.413.435.544.19.148.365.572.608.631.177.042.384-.104.543-.143.18-.043.397.01.571-.053.222-.079.127-.337.288-.45.104-.074.287-.01.406-.051a.607.607 0 00.376-.46c.016-.082.01-.145.039-.221.039-.103.111-.16.09-.293-.01-.062-.052-.12-.064-.187-.022-.114.002-.224 0-.337-.003-.2.017-.379-.078-.55-.38-.688-1.236-.929-1.975-.789-.18.034-.287.126-.442.207-.17.088-.139.166-.318.224-.081.026-.216.124-.215.224.001.115.005.051.012.169-.021.011-.021-.005-.03-.025m-7.645-.001a.247.247 0 01-.026.19c-.053.101-.112.063-.165.128a.638.638 0 00-.079.362c-.169.058-.009.227-.015.35-.002.05-.041.105-.045.161a.764.764 0 00.068.37c.097.198.268.413.435.544.19.148.365.572.608.631.177.042.384-.104.543-.143.18-.043.397.01.571-.053.222-.079.127-.337.288-.45.104-.074.287-.01.406-.051a.607.607 0 00.376-.46c.016-.082.01-.145.039-.221.039-.103.111-.16.09-.293-.01-.062-.052-.12-.064-.187-.022-.114.002-.224 0-.337-.003-.2.017-.379-.078-.55-.38-.688-1.236-.929-1.975-.789-.18.034-.287.126-.442.207-.17.088-.139.166-.318.224-.081.026-.216.124-.215.224.001.115.005.051.012.169-.021.011-.021-.005-.03-.025m-7.644-.001a.247.247 0 01-.026.19c-.053.101-.112.063-.165.128a.638.638 0 00-.079.362c-.169.058-.009.227-.015.35-.002.05-.041.105-.045.161a.764.764 0 00.068.37c.097.198.268.413.435.544.19.148.365.572.608.631.177.042.384-.104.543-.143.18-.043.397.01.571-.053.222-.079.127-.337.288-.45.104-.074.287-.01.406-.051a.607.607 0 00.376-.46c.016-.082.01-.145.039-.221.039-.103.111-.16.09-.293-.01-.062-.052-.12-.064-.187-.022-.114.002-.224 0-.337-.003-.2.017-.379-.078-.55-.38-.688-1.236-.929-1.975-.789-.18.034-.287.126-.442.207-.17.088-.139.166-.318.224-.081.026-.216.124-.215.224.001.115.005.051.012.169-.021.011-.021-.005-.03-.025m-7.644-.001a.247.247 0 01-.026.19c-.053.101-.112.063-.165.128a.638.638 0 00-.079.362c-.169.058-.009.227-.015.35-.002.05-.041.105-.045.161a.764.764 0 00.068.37c.097.198.268.413.435.544.19.148.365.572.608.631.177.042.384-.104.543-.143.18-.043.397.01.571-.053.222-.079.127-.337.288-.45.104-.074.287-.01.406-.051a.607.607 0 00.376-.46c.016-.082.01-.145.039-.221.039-.103.111-.16.09-.293-.01-.062-.052-.12-.064-.187-.022-.114.002-.224 0-.337-.003-.2.017-.379-.078-.55-.38-.688-1.236-.929-1.975-.789-.18.034-.287.126-.442.207-.17.088-.139.166-.318.224-.081.026-.216.124-.215.224.001.115.005.051.012.169-.021.011-.021-.005-.03-.025m-7.645-.001a.247.247 0 01-.026.19c-.053.101-.112.063-.165.128a.638.638 0 00-.079.362c-.169.058-.009.227-.015.35-.002.05-.041.105-.045.161a.764.764 0 00.068.37c.097.198.268.413.435.544.19.148.365.572.608.631.177.042.384-.104.543-.143.18-.043.397.01.571-.053.222-.079.127-.337.288-.45.104-.074.287-.01.406-.051a.607.607 0 00.376-.46c.016-.082.01-.145.039-.221.039-.103.111-.16.09-.293-.01-.062-.052-.12-.064-.187-.022-.114.002-.224 0-.337-.003-.2.017-.379-.078-.55-.38-.688-1.236-.929-1.975-.789-.18.034-.287.126-.442.207-.17.088-.139.166-.318.224-.081.026-.216.124-.215.224.001.115.005.051.012.169-.021.011-.021-.005-.03-.025m-7.644-.001a.247.247 0 01-.026.19c-.053.101-.112.063-.165.128a.638.638 0 00-.079.362c-.169.058-.009.227-.015.35-.002.05-.041.105-.045.161a.764.764 0 00.068.37c.097.198.268.413.435.544.19.148.365.572.608.631.177.042.384-.104.543-.143.18-.043.397.01.571-.053.222-.079.127-.337.288-.45.104-.074.287-.01.406-.051a.607.607 0 00.376-.46c.016-.082.01-.145.039-.221.039-.103.111-.16.09-.293-.01-.062-.052-.12-.064-.187-.022-.114.002-.224 0-.337-.003-.2.017-.379-.078-.55-.38-.688-1.236-.929-1.975-.789-.18.034-.287.126-.442.207-.17.088-.139.166-.318.224-.081.026-.216.124-.215.224.001.115.005.051.012.169-.021.011-.021-.005-.03-.025m-7.644-.001a.247.247 0 01-.026.19c-.053.101-.112.063-.165.128a.638.638 0 00-.079.362c-.169.058-.009.227-.015.35-.002.05-.041.105-.045.161a.764.764 0 00.068.37c.097.198.268.413.435.544.19.148.365.572.608.631.177.042.384-.104.543-.143.18-.043.397.01.571-.053.222-.079.127-.337.288-.45.104-.074.287-.01.406-.051a.607.607 0 00.376-.46c.016-.082.01-.145.039-.221.039-.103.111-.16.09-.293-.01-.062-.052-.12-.064-.187-.022-.114.002-.224 0-.337-.003-.2.017-.379-.078-.55-.38-.688-1.236-.929-1.975-.789-.18.034-.287.126-.442.207-.17.088-.139.166-.318.224-.081.026-.216.124-.215.224.001.115.005.051.012.169-.021.011-.021-.005-.03-.025m-7.645-.001a.247.247 0 01-.026.19c-.053.101-.112.063-.165.128a.638.638 0 00-.079.362c-.169.058-.009.227-.015.35-.002.05-.041.105-.045.161a.764.764 0 00.068.37c.097.198.268.413.435.544.19.148.365.572.608.631.177.042.384-.104.543-.143.18-.043.397.01.571-.053.222-.079.127-.337.288-.45.104-.074.287-.01.406-.051a.607.607 0 00.376-.46c.016-.082.01-.145.039-.221.039-.103.111-.16.09-.293-.01-.062-.052-.12-.064-.187-.022-.114.002-.224 0-.337-.003-.2.017-.379-.078-.55-.38-.688-1.236-.929-1.975-.789-.18.034-.287.126-.442.207-.17.088-.139.166-.318.224-.081.026-.216.124-.215.224.001.115.005.051.012.169-.021.011-.021-.005-.03-.025m-7.644-.001a.247.247 0 01-.026.19c-.053.101-.112.063-.165.128a.638.638 0 00-.079.362c-.169.058-.009.227-.015.35-.002.05-.041.105-.045.161a.764.764 0 00.068.37c.097.198.268.413.435.544.19.148.365.572.608.631.177.042.384-.104.543-.143.18-.043.397.01.571-.053.222-.079.127-.337.288-.45.104-.074.287-.01.406-.051a.607.607 0 00.376-.46c.016-.082.01-.145.039-.221.039-.103.111-.16.09-.293-.01-.062-.052-.12-.064-.187-.022-.114.002-.224 0-.337-.003-.2.017-.379-.078-.55-.38-.688-1.236-.929-1.975-.789-.18.034-.287.126-.442.207-.17.088-.139.166-.318.224-.081.026-.216.124-.215.224.001.115.005.051.012.169-.021.011-.021-.005-.03-.025m-7.645-.001a.247.247 0 01-.026.19c-.053.101-.112.063-.165.128a.638.638 0 00-.079.362c-.169.058-.01.227-.015.35-.002.05-.041.105-.045.161a.764.764 0 00.068.37c.097.198.268.413.435.544.19.148.365.572.608.631.177.042.384-.104.543-.143.18-.043.397.01.571-.053.222-.079.127-.337.288-.45.104-.074.287-.01.406-.051a.607.607 0 00.376-.46c.016-.082.01-.145.039-.221.039-.103.111-.16.09-.293-.01-.062-.052-.12-.064-.187-.022-.114.002-.224 0-.337-.003-.2.017-.379-.078-.55-.38-.688-1.236-.929-1.975-.789-.18.034-.287.126-.442.207-.17.088-.139.166-.318.224-.081.026-.216.124-.215.224.003.117.006.052.013.17-.021.011-.021-.005-.03-.025m68.959 7.651a.247.247 0 01-.026.19c-.053.101-.112.063-.165.128a.638.638 0 00-.079.362c-.169.059-.01.228-.015.351-.002.05-.041.105-.045.161a.764.764 0 00.068.37c.097.198.268.413.435.544.19.148.365.572.608.631.177.042.384-.104.543-.143.18-.043.397.01.571-.053.222-.079.127-.337.288-.45.104-.074.287-.01.406-.051a.607.607 0 00.376-.46c.016-.082.01-.145.039-.221.039-.103.111-.16.09-.293-.01-.062-.052-.12-.064-.187-.022-.114.002-.224 0-.337-.003-.2.017-.379-.078-.55-.38-.688-1.236-.929-1.975-.789-.18.034-.287.126-.442.207-.17.088-.139.166-.318.224-.081.026-.216.124-.215.224.001.115.005.051.012.169-.021.011-.021-.005-.03-.025m-7.645-.002a.247.247 0 01-.026.19c-.053.101-.112.063-.165.128a.638.638 0 00-.079.362c-.169.058-.009.227-.015.35-.002.05-.041.105-.045.161a.764.764 0 00.068.37c.097.198.268.413.435.544.19.148.365.572.608.631.177.042.384-.104.543-.143.18-.043.397.01.571-.053.222-.079.127-.337.288-.45.104-.074.287-.01.406-.051a.607.607 0 00.376-.46c.016-.082.01-.145.039-.221.039-.103.111-.16.09-.293-.01-.062-.052-.12-.064-.187-.022-.114.002-.224 0-.337-.003-.2.017-.379-.078-.55-.38-.688-1.236-.929-1.975-.789-.18.034-.287.126-.442.207-.17.088-.139.166-.318.224-.081.026-.216.124-.215.224.001.115.005.051.012.169-.021.011-.021-.005-.03-.025m-7.644-.001a.247.247 0 01-.026.19c-.053.101-.112.063-.165.128a.638.638 0 00-.079.362c-.169.058-.009.227-.015.35-.002.05-.041.105-.045.161a.764.764 0 00.068.37c.097.198.268.413.435.544.19.148.365.572.608.631.177.042.384-.104.543-.143.18-.043.397.01.571-.053.222-.079.127-.337.288-.45.104-.074.287-.01.406-.051a.607.607 0 00.376-.46c.016-.082.01-.145.039-.221.039-.103.111-.16.09-.293-.01-.062-.052-.12-.064-.187-.022-.114.002-.224 0-.337-.003-.2.017-.379-.078-.55-.38-.688-1.236-.929-1.975-.789-.18.034-.287.126-.442.207-.17.088-.139.166-.318.224-.081.026-.216.124-.215.224.001.115.005.051.012.169-.021.011-.021-.005-.03-.025m-7.644-.001a.247.247 0 01-.026.19c-.053.101-.112.063-.165.128a.638.638 0 00-.079.362c-.169.058-.009.227-.015.35-.002.05-.041.105-.045.161a.764.764 0 00.068.37c.097.198.268.413.435.544.19.148.365.572.608.631.177.042.384-.104.543-.143.18-.043.397.01.571-.053.222-.079.127-.337.288-.45.104-.074.287-.01.406-.051a.607.607 0 00.376-.46c.016-.082.01-.145.039-.221.039-.103.111-.16.09-.293-.01-.062-.052-.12-.064-.187-.022-.114.002-.224 0-.337-.003-.2.017-.379-.078-.55-.38-.688-1.236-.929-1.975-.789-.18.034-.287.126-.442.207-.17.088-.139.166-.318.224-.081.026-.216.124-.215.224.001.115.005.051.012.169-.021.011-.021-.005-.03-.025m-7.645-.001a.247.247 0 01-.026.19c-.053.101-.112.063-.165.128a.638.638 0 00-.079.362c-.169.058-.009.227-.015.35-.002.05-.041.105-.045.161a.764.764 0 00.068.37c.097.198.268.413.435.544.19.148.365.572.608.631.177.042.384-.104.543-.143.18-.043.397.01.571-.053.222-.079.127-.337.288-.45.104-.074.287-.01.406-.051a.607.607 0 00.376-.46c.016-.082.01-.145.039-.221.039-.103.111-.16.09-.293-.01-.062-.052-.12-.064-.187-.022-.114.002-.224 0-.337-.003-.2.017-.379-.078-.55-.38-.688-1.236-.929-1.975-.789-.18.034-.287.126-.442.207-.17.088-.139.166-.318.224-.081.026-.216.124-.215.224.001.115.005.051.012.169-.021.011-.021-.005-.03-.025m-7.644-.001a.247.247 0 01-.026.19c-.053.101-.112.063-.165.128a.638.638 0 00-.079.362c-.169.058-.009.227-.015.35-.002.05-.041.105-.045.161a.764.764 0 00.068.37c.097.198.268.413.435.544.19.148.365.572.608.631.177.042.384-.104.543-.143.18-.043.397.01.571-.053.222-.079.127-.337.288-.45.104-.074.287-.01.406-.051a.607.607 0 00.376-.46c.016-.082.01-.145.039-.221.039-.103.111-.16.09-.293-.01-.062-.052-.12-.064-.187-.022-.114.002-.224 0-.337-.003-.2.017-.379-.078-.55-.38-.688-1.236-.929-1.975-.789-.18.034-.287.126-.442.207-.17.088-.139.166-.318.224-.081.026-.216.124-.215.224.001.115.005.051.012.169-.021.011-.021-.005-.03-.025m-7.644-.001a.247.247 0 01-.026.19c-.053.101-.112.063-.165.128a.638.638 0 00-.079.362c-.169.058-.009.227-.015.35-.002.05-.041.105-.045.161a.764.764 0 00.068.37c.097.198.268.413.435.544.19.148.365.572.608.631.177.042.384-.104.543-.143.18-.043.397.01.571-.053.222-.079.127-.337.288-.45.104-.074.287-.01.406-.051a.607.607 0 00.376-.46c.016-.082.01-.145.039-.221.039-.103.111-.16.09-.293-.01-.062-.052-.12-.064-.187-.022-.114.002-.224 0-.337-.003-.2.017-.379-.078-.55-.38-.688-1.236-.929-1.975-.789-.18.034-.287.126-.442.207-.17.088-.139.166-.318.224-.081.026-.216.124-.215.224.001.115.005.051.012.169-.021.011-.021-.005-.03-.025m-7.645-.001a.247.247 0 01-.026.19c-.053.101-.112.063-.165.128a.638.638 0 00-.079.362c-.169.058-.009.227-.015.35-.002.05-.041.105-.045.161a.764.764 0 00.068.37c.097.198.268.413.435.544.19.148.365.572.608.631.177.042.384-.104.543-.143.18-.043.397.01.571-.053.222-.078.128-.336.289-.449.104-.074.287-.01.406-.051a.607.607 0 00.376-.46c.016-.082.01-.145.039-.221.039-.103.111-.16.09-.293-.01-.062-.052-.12-.064-.187-.022-.114.002-.224 0-.337-.003-.2.017-.379-.078-.55-.38-.688-1.236-.929-1.975-.789-.18.034-.287.126-.442.207-.17.088-.139.166-.318.224-.081.026-.216.124-.215.224.001.115.005.051.012.169-.021.011-.021-.005-.03-.025m-7.645-.002a.247.247 0 01-.026.19c-.053.101-.112.063-.165.128a.641.641 0 00-.079.363c-.169.058-.01.227-.015.35-.003.049-.041.105-.045.161a.764.764 0 00.068.37c.097.198.268.413.435.544.19.148.365.572.608.631.177.042.384-.105.543-.143.18-.043.397.01.571-.053.222-.079.127-.337.288-.45.104-.074.287-.01.406-.051a.607.607 0 00.376-.46c.016-.082.01-.145.039-.221.039-.103.111-.16.09-.293-.01-.062-.052-.12-.064-.187-.022-.114.002-.224 0-.337-.003-.2.017-.379-.078-.55-.38-.688-1.236-.929-1.975-.789-.18.034-.287.126-.442.207-.17.088-.139.166-.318.224-.081.026-.216.124-.215.224.001.115.005.051.012.169-.021.011-.021-.005-.03-.025m-7.645-.002a.247.247 0 01-.026.19c-.053.101-.112.063-.165.128a.641.641 0 00-.079.363c-.169.058-.01.227-.015.35-.002.05-.041.105-.045.161a.764.764 0 00.068.37c.097.198.268.413.435.544.19.148.365.572.608.631.178.042.384-.105.543-.143.181-.043.398.01.572-.053.222-.079.127-.337.288-.45.104-.074.287-.01.406-.051a.607.607 0 00.376-.46c.016-.082.01-.144.039-.22.039-.103.111-.16.09-.293-.01-.062-.052-.12-.064-.187-.022-.114.002-.224 0-.337-.003-.2.017-.379-.078-.55-.38-.688-1.236-.929-1.975-.789-.18.034-.287.126-.442.207-.17.088-.139.166-.318.224-.081.026-.216.124-.215.224.001.115.005.051.012.169-.021.011-.021-.005-.03-.025m68.959 7.65a.242.242 0 01-.026.19c-.052.101-.113.063-.165.128a.63.63 0 00-.079.362c-.169.058-.01.227-.015.35-.002.05-.041.105-.045.161a.764.764 0 00.068.37c.097.198.268.413.435.544.19.148.365.572.608.631.177.042.384-.104.543-.143.18-.043.397.01.571-.053.222-.079.127-.337.288-.45.104-.074.287-.01.406-.051.2-.07.339-.263.376-.46.016-.082.01-.145.039-.221.038-.103.111-.16.09-.293-.01-.062-.051-.12-.064-.187-.021-.114.002-.224 0-.337-.003-.2.017-.379-.078-.55-.38-.688-1.236-.929-1.975-.789-.18.034-.287.126-.442.207-.17.088-.139.166-.318.224-.081.026-.215.124-.215.224.002.115.005.051.012.169-.021.011-.021-.005-.03-.025m-7.645-.001a.247.247 0 01-.026.19c-.052.101-.112.063-.165.128a.638.638 0 00-.079.362c-.169.058-.01.227-.015.35-.002.05-.041.105-.045.161a.764.764 0 00.068.37c.097.198.268.413.435.544.19.148.365.572.608.631.178.042.384-.104.544-.143.18-.043.397.01.571-.053.222-.079.127-.337.288-.45.104-.074.287-.01.406-.051a.607.607 0 00.376-.46c.016-.082.01-.145.039-.221.039-.103.111-.16.09-.293-.01-.062-.052-.12-.064-.187-.022-.114.002-.224 0-.337-.003-.2.017-.379-.078-.55-.38-.688-1.236-.929-1.975-.789-.18.034-.287.126-.442.207-.17.088-.139.166-.318.224-.081.028-.216.125-.215.225.001.115.005.051.012.169-.021.011-.021-.005-.03-.025m-7.645-.002a.247.247 0 01-.026.19c-.052.101-.112.063-.165.128a.638.638 0 00-.079.362c-.169.058-.01.227-.015.35-.002.05-.041.105-.045.161a.764.764 0 00.068.37c.097.198.268.413.435.544.19.148.365.572.608.631.178.042.384-.104.543-.143.18-.043.397.01.571-.053.222-.079.127-.337.288-.45.104-.074.287-.01.406-.051a.607.607 0 00.376-.46c.016-.082.01-.145.039-.221.039-.103.111-.16.09-.293-.01-.062-.052-.12-.064-.187-.022-.114.002-.224 0-.337-.003-.2.017-.379-.078-.55-.38-.688-1.236-.929-1.975-.789-.18.034-.287.126-.442.207-.17.088-.139.166-.318.224-.08.028-.215.125-.214.225.001.115.005.051.012.169-.021.011-.021-.005-.03-.025m-7.645-.002a.247.247 0 01-.026.19c-.053.101-.112.063-.165.128a.638.638 0 00-.079.362c-.169.058-.01.227-.015.35-.002.05-.041.105-.045.161a.764.764 0 00.068.37c.097.198.268.413.435.544.19.148.365.572.608.631.177.042.384-.104.543-.143.18-.043.397.01.571-.053.222-.079.127-.337.288-.45.104-.074.287-.01.406-.051a.607.607 0 00.376-.46c.016-.082.01-.145.039-.221.039-.103.111-.16.09-.293-.01-.062-.052-.12-.064-.187-.022-.114.002-.224 0-.337-.003-.2.017-.379-.078-.55-.38-.688-1.236-.929-1.975-.789-.18.034-.287.126-.442.207-.17.088-.139.166-.318.224-.081.028-.216.125-.215.225.001.115.005.051.012.169-.021.011-.021-.005-.03-.025m-7.645-.002a.247.247 0 01-.026.19c-.053.101-.112.063-.165.128a.638.638 0 00-.079.362c-.169.058-.01.227-.015.35-.002.05-.041.105-.045.161a.764.764 0 00.068.37c.097.198.268.413.435.544.19.148.365.572.608.631.178.042.384-.104.544-.143.18-.043.397.01.571-.053.222-.079.127-.337.288-.45.104-.074.287-.01.406-.051a.607.607 0 00.376-.46c.016-.082.01-.145.039-.221.039-.103.111-.16.09-.293-.01-.062-.052-.12-.064-.187-.022-.114.002-.224 0-.337-.003-.2.017-.379-.078-.55-.38-.688-1.236-.929-1.975-.789-.18.034-.287.126-.442.207-.17.088-.139.166-.318.224-.081.028-.216.125-.215.225.001.115.005.051.012.169-.021.011-.021-.005-.03-.025m-7.645-.002a.247.247 0 01-.026.19c-.053.101-.112.063-.165.128a.638.638 0 00-.079.362c-.169.058-.01.227-.015.35-.002.05-.041.105-.045.161a.764.764 0 00.068.37c.097.198.268.413.435.544.19.148.365.572.608.631.177.042.384-.104.543-.143.18-.043.397.01.571-.053.222-.079.127-.337.288-.45.104-.074.287-.01.406-.051a.607.607 0 00.376-.46c.016-.082.01-.145.039-.221.039-.103.111-.16.09-.293-.01-.062-.052-.12-.064-.187-.022-.114.002-.224 0-.337-.003-.2.017-.379-.078-.55-.38-.688-1.236-.929-1.975-.789-.18.034-.287.126-.442.207-.17.088-.139.166-.318.224-.081.028-.215.125-.214.225.001.115.005.051.012.169-.021.011-.021-.005-.03-.025m-7.645-.002a.247.247 0 01-.026.19c-.053.101-.112.063-.165.128a.638.638 0 00-.079.362c-.169.058-.01.227-.015.35-.002.05-.041.105-.045.161a.764.764 0 00.068.37c.097.198.268.413.435.544.19.148.365.572.608.631.177.042.384-.104.543-.143.18-.043.397.01.571-.053.222-.079.127-.337.288-.45.104-.074.287-.01.406-.051a.607.607 0 00.376-.46c.016-.082.01-.145.039-.221.039-.103.111-.16.09-.293-.01-.062-.052-.12-.064-.187-.022-.114.002-.224 0-.337-.003-.2.017-.379-.078-.55-.38-.688-1.236-.929-1.975-.789-.18.034-.287.126-.442.207-.17.088-.139.166-.318.224-.081.026-.216.124-.215.224.001.115.005.051.012.169-.021.011-.021-.005-.03-.025m-7.645-.001a.247.247 0 01-.026.19c-.053.101-.112.063-.165.128a.638.638 0 00-.079.362c-.169.058-.01.227-.015.35-.002.05-.041.105-.045.161a.764.764 0 00.068.37c.097.198.268.413.435.544.19.148.365.572.608.631.177.042.384-.104.543-.143.18-.043.397.01.571-.053.222-.079.127-.337.288-.45.104-.074.287-.01.406-.051a.607.607 0 00.376-.46c.016-.082.01-.145.039-.221.039-.103.111-.16.09-.293-.01-.062-.052-.12-.064-.187-.022-.114.002-.224 0-.337-.003-.2.017-.379-.078-.55-.38-.688-1.236-.929-1.975-.789-.18.034-.287.126-.442.207-.17.088-.139.166-.318.224-.081.026-.216.124-.215.224.001.115.005.051.012.169-.02.012-.021-.004-.03-.024m-7.644-.002a.247.247 0 01-.026.19c-.053.101-.112.063-.165.128a.638.638 0 00-.079.362c-.169.058-.01.227-.015.35-.003.05-.041.105-.045.161a.764.764 0 00.068.37c.097.198.268.413.435.544.19.148.365.572.608.631.177.042.384-.104.543-.143.18-.043.397.01.571-.053.222-.079.127-.337.288-.45.104-.074.287-.01.406-.051a.607.607 0 00.376-.46c.016-.082.01-.145.039-.221.039-.103.111-.16.09-.293-.01-.062-.052-.12-.064-.187-.022-.114.002-.224 0-.337-.003-.2.017-.379-.078-.55-.38-.688-1.236-.929-1.975-.789-.179.036-.286.128-.441.209-.17.088-.139.166-.318.224-.082.026-.216.123-.215.223.001.115.005.051.011.169-.02.011-.021-.005-.03-.025M.495-2.778a.242.242 0 01-.026.19c-.052.101-.113.063-.165.128a.63.63 0 00-.079.362c-.169.058-.01.227-.015.35-.002.05-.041.105-.045.161a.764.764 0 00.068.37c.097.198.268.413.435.544.19.148.365.572.608.631.178.042.384-.104.543-.143.181-.043.398.01.572-.052.222-.079.127-.337.288-.45.104-.074.287-.01.406-.051.2-.07.339-.263.376-.46.016-.082.01-.145.039-.221.038-.103.111-.16.09-.293-.01-.062-.051-.12-.064-.187-.021-.114.002-.224 0-.337-.003-.2.017-.379-.078-.55-.38-.688-1.236-.929-1.975-.789-.18.035-.286.127-.442.208-.17.088-.139.166-.318.224-.081.026-.215.123-.215.223.002.115.005.051.012.169-.021.011-.022-.005-.031-.025M344.953 179.642c-1.49-.793-3.064-1.21-4.656-1.21-1.637 0-3.14.417-4.627 1.21-1.54.87-2.688 2.025-3.601 3.586-.852 1.553-1.217 3.183-1.217 4.842 0 1.667.365 3.248 1.217 4.786.867 1.538 2.005 2.738 3.524 3.559 1.513.87 3.03 1.274 4.702 1.274a8.963 8.963 0 004.656-1.274c1.502-.82 2.723-2.021 3.483-3.56.85-1.537 1.259-3.118 1.259-4.785 0-1.659-.412-3.289-1.26-4.842-.813-1.56-1.991-2.719-3.48-3.586m2.185 12.396c-.746 1.274-1.738 2.27-2.98 2.986-1.216.733-2.508 1.091-3.86 1.091a7.425 7.425 0 01-3.897-1.09 7.774 7.774 0 01-2.955-2.987c-.677-1.219-.985-2.547-.985-3.968a8.56 8.56 0 011.024-4.022c.683-1.292 1.699-2.276 2.942-2.968 1.252-.707 2.544-1.044 3.872-1.044 1.318 0 2.597.335 3.862 1.044 1.204.695 2.16 1.676 2.98 2.968a8.532 8.532 0 01.984 4.022c-.002 1.421-.313 2.75-.987 3.968m-5.214-2.72a2.39 2.39 0 00-.874-.55c.874-.084 1.62-.408 2.165-.958.521-.563.751-1.236.751-1.978 0-.523-.153-1.053-.464-1.533a2.533 2.533 0 00-1.267-.982c-.545-.183-1.415-.261-2.544-.261h-3.537v10.316h1.633v-4.328h.96c.594-.018.979.074 1.316.327.405.315.987 1.117 1.708 2.372l.9 1.63h2.015l-1.223-2.002c-.64-.95-1.112-1.636-1.54-2.054m-2.17-1.768h-1.966v-3.105h1.904c.775 0 1.322.056 1.59.179.334.156.608.315.72.532.172.266.234.545.234.842 0 .512-.16.848-.502 1.154-.354.228-.994.398-1.98.398M2.696 2.689l37.86 178.978 2.878-1.488c40.267-21.15 80.472-19.887 107.073-15.094 28.95 5.182 48.554 15.512 48.79 15.583l1.05.595 1.08-.519c47.526-21.136 86.775-19.918 111.325-15.19 26.588 5.153 42.189 15.434 42.35 15.552l2.993 1.983.77-3.545L397.698 2.689z"/><path d="M276.275 42.918v13.518h7.034l-3.483 10.115H283l7.69-9.293h.001v-14.34h-14.416zm-134.58 8.23c-20.99 0-33.529 11.725-33.529 31.334 0 19.616 12.048 31.366 34.787 31.366 20.68 0 30.126-7.86 32.367-21.297h-18.486c-1.029 5.197-5.87 6.99-12.201 6.99-7.403 0-12.069-5.112-12.069-13.459h42.374c.181-.97.277-2.256.277-3.6 0-16.998-11.13-31.334-33.52-31.334zm181.114.184c-18.644 0-30.579 7.494-30.579 20.283 0 23.9 35.444 15.8 35.444 24.254 0 3.195-2.581 4.861-7.61 4.861-5.695 0-9.744-2.594-9.744-7.726h-18.59v.342c0 10.837 7.557 19.787 27.902 19.787 22.956 0 31.738-9.107 31.742-20.82 0-24.322-37.064-15.179-37.064-24.5 0-1.916 2.39-4.09 8.54-4.09 6.044 0 9.594 2.833 9.594 5.668h17.022c0-9.825-10.066-18.059-26.656-18.059zm-74.819 1.166v59.303h22.201V52.498h-22.2zm-78.914.115l29.131 59.315h18.252l28.2-59.315h-18.34l-15.645 34.248h-.406l-15.631-34.248h-25.56zm-117.719.514v58.701h55.74V96.84H73.55V53.127H51.357zm90.51 10.715c6.318 0 8.453 5.192 8.453 11.699h-16.943c0-5.826 2.212-11.7 8.49-11.7z"/></symbol><symbol viewBox="135.5 361.375 200 72" overflow="visible" id="Logo_NIKE" xmlns="http://www.w3.org/2000/svg"><path d="M159.23 431.966c-5.84-.232-10.618-1.83-14.354-4.798-.713-.567-2.412-2.267-2.982-2.984-1.515-1.905-2.545-3.759-3.232-5.816-2.114-6.332-1.026-14.641 3.112-23.76 3.543-7.807 9.01-15.55 18.548-26.274 1.405-1.578 5.589-6.193 5.616-6.193.01 0-.218.395-.505.876-2.48 4.154-4.602 9.047-5.758 13.283-1.857 6.797-1.633 12.63.656 17.153 1.579 3.116 4.286 5.815 7.33 7.307 5.329 2.611 13.131 2.827 22.659.632.656-.152 33.162-8.781 72.236-19.176a88696.433 88696.433 0 0171.054-18.888c.011.009-90.78 38.859-137.911 59.014-7.464 3.191-9.46 3.997-12.969 5.229-8.97 3.15-17.005 4.653-23.5 4.395z"/></symbol><symbol viewBox="-0.547 -0.547 110.65 19.315" id="Mango_logo" xmlns="http://www.w3.org/2000/svg"><path d="M109.557 9.181C109.557 4.011 104.863 0 99.1 0c-5.582 0-10.485 3.826-10.485 8.901 0 4.788 3.851 8.623 9.038 9.233v-2.898c-3.393-.559-5.958-3.094-5.958-6.144 0-3.458 3.297-6.266 7.365-6.266s7.366 2.808 7.366 6.266c0 3.027-2.524 5.545-5.879 6.13v2.903c4.979-.605 9.01-4.298 9.01-8.944M76.328 15.41c-3.2 0-5.925-1.732-6.94-4.159h-3.276c1.084 4.181 5.341 6.97 10.398 6.97 1.173 0 2.525-.115 3.646-.395 2.532-.626 5.296-2.271 5.296-4.867V8.35h-9.156l-.01 2.901h6.238v1.317c0 1.455-2.172 2.297-3.503 2.592-.715.159-1.635.25-2.374.25h-.319m6.203-10.104C81.142 3.865 79 2.942 76.598 2.942c-3.832 0-7 2.354-7.506 5.408h-3.21C66.301 3.61 71.151.116 76.638.116c3.265 0 6.195 1.215 8.17 3.17l-2.277 2.02M48.083.497h-2.966v17.337h2.916V4.879l11.951 12.955h2.172v-2.108L48.083.497m14.073 0h-2.917v8.42l2.917 2.927V.498m-25.613 11.96l2.69 5.376h3.507L33.942.498h-3.161l-.002.005 4.405 9.193h-5.853L30.86 6.7l-1.593-3.258-7.413 14.392h3.277l2.773-5.374 8.64-.001M2.94.498H0v17.336h2.915V5.915l6.619 10.583 1.686-2.7L2.941.498m8.157 8.136l1.678 2.661 3.375-5.38v11.918h2.908V.498h-2.967l-4.994 8.136"/></symbol><symbol viewBox="0 0 693.887 353.754" id="Puma_logo" xmlns="http://www.w3.org/2000/svg"><path d="M0 256.1v-83.335h46.5c26.151 0 49.112 1.398 52.47 3.195 5.56 2.976 5.97 6.98 5.97 58.422 0 66.806.979 64.928-33.842 64.928-27.415 0-27.887.422-27.887 24.944v15.18H0v-83.335zm58.643-19.733c0-33.708-.846-41.661-4.583-43.095-7.862-3.017-10.85 8.632-10.85 42.31 0 36.487 1.283 42.123 9.59 42.123 5.442 0 5.843-2.837 5.843-41.338zm64.924 97.097c-1.958-3.66-3.195-35.908-3.195-83.335v-77.364h46.297v67.312c0 51.596.972 68.641 4.162 73.004 9.571 13.09 11.27 2.61 11.27-69.51v-70.806h46.297v79.63c0 57.82-1.014 80.646-3.703 83.335-2.557 2.557-18.29 3.704-50.818 3.704-43.422 0-47.365-.468-50.31-5.97zm120.264-73.661c0-57.82 1.014-80.645 3.704-83.335 5.263-5.263 150.911-5.263 156.175 0 2.69 2.69 3.704 25.515 3.704 83.335v79.63h-46.297v-72.757c0-67.632-.381-72.685-5.402-71.72-4.93.948-5.473 7.29-6.23 72.758l-.828 71.72h-46.183v-70.61c0-54.824-.914-71.37-4.086-74.003-9.745-8.087-11.347 2.393-11.347 74.241v70.372h-43.21v-79.631zm182.101-.509c0-76.072.303-80.301 5.97-83.334 8.632-4.62 90.576-4.182 95.266.508 2.69 2.69 3.704 25.515 3.704 83.335v79.63h-46.015l-.912-20.833c-.704-16.055-1.975-20.833-5.543-20.833s-4.839 4.778-5.542 20.833l-.913 20.834h-46.015v-80.14zm57.1-23.514c0-33.38-.753-39.867-4.63-39.867-3.808 0-4.785 6.542-5.504 36.858-.928 39.078.088 46.224 6.278 44.161 2.818-.94 3.856-12.011 3.856-41.152z"/><path d="M624.916 267.091c-1.952-2.352-5.366-10.534-6.043-19.108-1.19-15.062 1.91-13.965-16.545-32.497-14.882-14.944-24.564-24.761-31.255-44.447-10.536-31-24.324-39.126-41.207-39.126-15.636 0-40.53-5.014-53.847-10.846-6.311-2.764-18.56-11.412-27.219-19.219l-15.743-14.193-7.232 5.688c-9.601 7.553-23.12 7.175-43.484-1.214-18.956-7.808-22.533-7.329-22.533-1.839 0 6.471-5.026 6.765-12.199 2.065-15.094-9.89-2.347-25.99 23.024-24.727 15.105.745 15.818.877 15.818-5.294 0-7.297-4.502-9.884-17.2-9.884-5.45 0-10.202-1.81-14.945-6.355-2.91-1.753-5.509-3.118-7.172-7.113 1.385-5.07 2.808-8.298 5.51-10.737 2.626-5.122 5.744-10.65 11.284-14.149 3.19-2.013 6.297-8.285 8.727-10.758 2.15-2.189 2.06-2.874 5.76.181 3.804 3.14 5.283 3.158 8.963.104 3.71-3.079 4.904-2.977 7.553.646 1.73 2.367 7.993 8.774 16.621 10.802 24.046 5.653 45.303 18.35 84.026 50.293 49.332 40.695 54.248 38.941 77.673 41.292 27.492 2.759 37.833-7.46 57.554-50.954 12.947-28.556 21.335-39.507 36.985-49.387 13.294-8.392 24.897-8.705 25.821.779.886 9.095.786 13.443-18.807 25.267-21.79 13.15-28.246 19.857-41.95 48.242-7.058 14.617-15.626 27.672-21.855 33.3l-10.246 9.257 6.807 13.756c5.04 10.183 7.143 19.683 8.098 36.573 1.772 31.346-.334 28.404 10.25 38.449 4.923 4.67 6.854.934 8.855 10.342 1.9 8.927 2.392 13.373 6.536 24.6 2.591 7.024.217 2.97-.764 12.895-.746 7.553 1.029 4.729-2.271 12.603-1.44 3.433-11.396-2.935-13.348-5.287z"/><text x="597.778" y="760.176" font-size="40" font-weight="400" text-anchor="middle" font-family="Arial Black" transform="translate(-27.372 -415.24)"><tspan x="597.778" y="760.176" font-size="32" font-family="Verdana">R</tspan></text><path d="M590.336 332.813a18.94 18.94 0 11-37.88 0 18.94 18.94 0 1137.88 0z"/></symbol><symbol clip-rule="evenodd" fill-rule="evenodd" stroke-linejoin="round" stroke-miterlimit="1.414" viewBox="0 0 1000 420.626" id="Zara_Logo" xmlns="http://www.w3.org/2000/svg"><path d="M948.708 408.18L800.551.27 800.45 0h-2.924l-30.509 83.824-55.543 152.604-.13-.121c-19.25-16.986-46.409-27.604-80.613-31.558l-10.432-1.077 10.349-1.327c56.406-10.136 94.322-45.76 94.322-88.68 0-58.856-55.357-99.937-134.652-99.937H425.332v2.98h47.94v304.12L356.843.269 356.738 0h-2.924l-30.51 83.824L205.63 407.13l-.724.084c-2.011.248-4 .445-5.968.594-2.96.232-5.903.371-8.855.371h-118.9L297.196 16.707l1.68-2.942H22.453v121.1h2.933c.52-58.986 34.872-118.158 110.77-118.158h91.565L0 411.112h306.784V295.09h-2.933c-.4 51.412-29.544 100.244-92.92 111.27l-2.015.344 48.266-132.665H392.39l48.72 134.141h-48.06v2.933h188.635v-2.933h-48.266V205.835h55.692c56.675 0 89.18 25.32 89.18 69.446v35.893c0 3.955.269 9.737.566 14.573v.176l-29.934 82.238h-39.105v2.933h80.947v-2.933H652.08l27.26-74.886c.056.724.084 1.16.084 1.16l.752 6.748.724 4.464c4.548 27.614 15.11 47.913 31.382 60.332l2.339 1.699c12.363 8.595 27.725 12.948 45.685 12.948 23.79 0 39.652-5.931 52.749-19.89l-1.717-1.616c-12.067 11.138-22.193 15.65-34.881 15.65-21.618 0-32.932-26.222-32.932-52.081v-50.29a112.915 112.915 0 00-5.783-36.728l-.538-1.559v-.056H836.1l48.72 134.142h-48.06v2.933H1000v-2.933zm-690.45-137.075l66.607-182.992 66.458 182.992zm275.19-68.213V16.707h42.51c56.787 0 86.767 33.758 86.767 97.59 0 67.887-17.209 88.595-73.614 88.595zm202.604 68.213l-.288-.724a90.879 90.879 0 00-18.852-28.774l-2.784-2.785-.297-.278 54.707-150.431 66.458 182.992z" fill-rule="nonzero"/></symbol></svg>